<svg width="502" height="96" viewBox="0 0 502 96" fill="none" xmlns="http://www.w3.org/2000/svg">
<g filter="url(#filter0_d_654_224)">
<mask id="path-1-outside-1_654_224" maskUnits="userSpaceOnUse" x="4" y="4.99072" width="488" height="83" fill="black">
<rect fill="white" x="4" y="4.99072" width="488" height="83"/>
<path fill-rule="evenodd" clip-rule="evenodd" d="M355.543 76.9838C354.366 82.5606 351.156 84.6224 345.325 84.1246C338.472 83.5384 331.526 84.1246 324.644 83.7588C322.817 83.6626 320.496 82.3693 319.399 80.8893C315.412 75.5049 311.974 69.7155 308.047 64.2841C306.889 62.6787 304.793 61.7524 301.988 59.6716C301.988 68.7456 301.988 75.9546 301.988 83.5272C294.854 83.5272 288.077 83.5272 280.943 83.5272C280.789 80.1699 280.639 76.9055 280.422 72.1912C268.656 83.9255 255.438 88.5771 240.221 84.4043C225.158 80.2729 215.73 70.1473 211.497 54.6139C209.043 56.2047 206.66 57.7485 204.171 59.3629C210.003 67.3572 215.671 75.1245 222.06 83.8796C213.628 83.8796 206.278 84.025 198.943 83.742C197.701 83.6939 196.248 82.0225 195.371 80.7673C191.534 75.2666 187.975 69.5734 184.085 64.1141C183.001 62.5926 181.128 61.6327 179.616 60.4167C179.157 60.7199 178.696 61.0242 178.236 61.3273C178.236 68.6796 178.236 76.0329 178.236 83.8919C169.669 83.8919 161.699 83.8919 153.728 83.8919C136.946 83.8919 120.162 83.7868 103.38 83.9758C99.6413 84.0172 97.2741 83.1222 95.3432 79.6833C91.8204 73.4151 87.7303 67.4646 83.4624 60.7266C79.0569 67.6425 75.119 74.1132 70.8354 80.3467C69.7536 81.9196 67.5755 83.7219 65.8817 83.7409C46.3041 83.9646 26.7221 83.8651 7.14109 83.8304C6.80884 83.8304 6.47657 83.5462 6 83.3281C6 59.0082 6 34.6246 6 9.89978C26.9234 9.89978 47.6018 9.84161 68.2758 10.0296C69.6541 10.0419 71.4216 11.6495 72.311 12.9807C76.0184 18.5229 79.4585 24.2429 83.4512 30.6241C87.3634 24.3246 90.7654 18.4591 94.6149 12.9035C95.6453 11.4179 98.036 10.0374 99.8092 10.0284C130.394 9.86062 160.98 9.79015 191.564 9.98593C202.642 10.0564 212.144 13.5658 217.077 25.0383C236.261 4.21221 257.326 2.15153 280.338 20.6015C280.372 19.9985 280.407 19.3955 280.442 18.7936C280.533 17.3393 280.652 15.8849 280.703 14.4295C280.748 13.1564 280.713 11.8799 280.713 11.0577C295.557 11.0577 310.065 10.1526 324.39 11.3798C333.759 12.182 340.093 19.0487 341.776 28.7099C343.649 39.4519 341.457 49.1434 332.507 56.3904C331.225 57.4286 329.76 58.2397 328.018 59.3942C330.72 63.0916 333.308 66.6379 336.298 70.7279C337.142 69.1091 337.856 67.9625 338.365 66.7319C345.561 49.3604 352.81 32.0113 359.833 14.5704C361.182 11.2199 362.668 9.72302 366.626 9.78008C381.616 9.99823 381.623 9.81364 387.366 23.6802C391.346 33.2877 395.315 42.9009 400.305 52.5331C401.696 38.4842 403.09 24.4364 404.504 10.1593C411.563 10.1593 418.409 10.1593 425.654 10.1593C431.351 24.3011 437.112 38.605 443.267 53.8934C448.485 40.8906 453.67 28.8475 458.095 16.5327C459.963 11.3273 462.342 9.0462 468.012 9.79015C472.4 10.3663 476.925 9.90537 482.001 9.90537C484.352 34.506 486.682 58.8952 489.042 83.6122C481.918 83.6122 475.277 83.6122 468.028 83.6122C466.905 72.5425 465.775 61.4101 464.646 50.2777C464.045 50.2341 463.445 50.1916 462.844 50.148C460.471 57.6255 458.107 65.1075 455.723 72.5794C452.103 83.9188 452.087 83.6447 440.116 84.034C435.471 84.185 433.697 82.6871 432.489 78.3453C429.653 68.1504 426.209 58.1278 421.937 48.0202C420.809 59.8316 419.681 71.6464 418.512 83.893C409.8 83.893 401.39 84.4255 393.136 83.5261C391.024 83.2968 389.404 78.5444 387.557 75.8696C387.235 72.481 385.529 71.266 382.015 71.4271C375.531 71.7269 369.006 71.8243 362.537 71.4036C358.076 71.1105 355.971 72.7349 355.543 76.9838ZM27.1796 55.7449C27.1796 58.9915 27.1796 61.6999 27.1796 64.6745C36.9841 64.6745 46.4675 64.6745 56.2675 64.6745C60.3374 58.3873 64.5728 51.8439 68.8788 45.192C64.5426 38.6229 60.2915 32.1813 56.7004 26.7421C54.3433 27.8429 52.7826 29.1709 51.1873 29.2145C43.2355 29.4338 35.2736 29.314 27.2658 29.314C27.2658 32.5673 27.2658 35.2131 27.2658 38.2683C34.8786 38.2683 42.0899 38.2683 49.3202 38.2683C49.3202 44.3351 49.3202 49.9723 49.3202 55.7438C41.827 55.7449 34.75 55.7449 27.1796 55.7449ZM246.264 39.8759C257.976 39.8759 269.104 39.8759 280.362 39.8759C280.362 36.6394 280.362 33.818 280.362 30.6353C276.142 31.7294 272.41 32.989 268.575 33.5629C266.729 33.8404 264.23 33.4074 262.813 32.2954C256.471 27.3182 249.721 25.9143 242.497 29.6318C235.178 33.4007 231.753 39.7864 232.154 47.9877C232.544 55.9608 236.498 61.7726 243.829 64.9576C252.77 68.8429 262.798 64.6645 265.777 55.5939C259.199 55.5939 252.775 55.5939 246.264 55.5939C246.264 50.2363 246.264 45.4001 246.264 39.8759ZM113.298 21.9249C108.261 29.5669 103.894 36.0308 99.751 42.6358C99.035 43.7769 98.5864 45.9371 99.1838 46.9149C103.49 53.9628 108.096 60.8273 113.299 68.8116C113.298 52.7501 113.298 38.0222 113.298 21.9249ZM302.132 43.3428C306.261 43.3428 310.135 43.5923 313.964 43.2779C318.399 42.9132 321.203 40.3871 321.259 35.7254C321.32 30.8031 318.455 28.1506 313.76 27.7724C309.954 27.4659 306.101 27.7098 302.131 27.7098C302.132 33.1602 302.132 38.0725 302.132 43.3428ZM178.467 27.7613C178.467 33.2631 178.467 38.1754 178.467 43.3092C182.622 43.3092 186.502 43.6046 190.316 43.2309C194.705 42.8002 197.428 40.2518 197.425 35.5509C197.423 30.8545 194.687 28.296 190.319 27.8429C186.51 27.4491 182.627 27.7613 178.467 27.7613ZM134.932 37.8085C142.474 37.8085 149.62 37.8085 156.822 37.8085C156.822 34.9311 156.822 32.3883 156.822 29.5646C149.451 29.5646 142.297 29.5646 134.932 29.5646C134.932 32.3346 134.932 34.883 134.932 37.8085ZM134.912 64.1857C142.649 64.1857 149.777 64.1857 156.714 64.1857C156.714 61.1942 156.714 58.6659 156.714 56.0559C149.261 56.0559 142.124 56.0559 134.912 56.0559C134.912 58.9467 134.912 61.4974 134.912 64.1857ZM371.693 34.5944C368.804 42.2431 366.346 48.7518 363.814 55.4541C369.478 55.4541 374.407 55.4541 379.795 55.4541C377.158 48.6645 374.681 42.2867 371.693 34.5944Z"/>
</mask>
<path fill-rule="evenodd" clip-rule="evenodd" d="M355.543 76.9838C354.366 82.5606 351.156 84.6224 345.325 84.1246C338.472 83.5384 331.526 84.1246 324.644 83.7588C322.817 83.6626 320.496 82.3693 319.399 80.8893C315.412 75.5049 311.974 69.7155 308.047 64.2841C306.889 62.6787 304.793 61.7524 301.988 59.6716C301.988 68.7456 301.988 75.9546 301.988 83.5272C294.854 83.5272 288.077 83.5272 280.943 83.5272C280.789 80.1699 280.639 76.9055 280.422 72.1912C268.656 83.9255 255.438 88.5771 240.221 84.4043C225.158 80.2729 215.73 70.1473 211.497 54.6139C209.043 56.2047 206.66 57.7485 204.171 59.3629C210.003 67.3572 215.671 75.1245 222.06 83.8796C213.628 83.8796 206.278 84.025 198.943 83.742C197.701 83.6939 196.248 82.0225 195.371 80.7673C191.534 75.2666 187.975 69.5734 184.085 64.1141C183.001 62.5926 181.128 61.6327 179.616 60.4167C179.157 60.7199 178.696 61.0242 178.236 61.3273C178.236 68.6796 178.236 76.0329 178.236 83.8919C169.669 83.8919 161.699 83.8919 153.728 83.8919C136.946 83.8919 120.162 83.7868 103.38 83.9758C99.6413 84.0172 97.2741 83.1222 95.3432 79.6833C91.8204 73.4151 87.7303 67.4646 83.4624 60.7266C79.0569 67.6425 75.119 74.1132 70.8354 80.3467C69.7536 81.9196 67.5755 83.7219 65.8817 83.7409C46.3041 83.9646 26.7221 83.8651 7.14109 83.8304C6.80884 83.8304 6.47657 83.5462 6 83.3281C6 59.0082 6 34.6246 6 9.89978C26.9234 9.89978 47.6018 9.84161 68.2758 10.0296C69.6541 10.0419 71.4216 11.6495 72.311 12.9807C76.0184 18.5229 79.4585 24.2429 83.4512 30.6241C87.3634 24.3246 90.7654 18.4591 94.6149 12.9035C95.6453 11.4179 98.036 10.0374 99.8092 10.0284C130.394 9.86062 160.98 9.79015 191.564 9.98593C202.642 10.0564 212.144 13.5658 217.077 25.0383C236.261 4.21221 257.326 2.15153 280.338 20.6015C280.372 19.9985 280.407 19.3955 280.442 18.7936C280.533 17.3393 280.652 15.8849 280.703 14.4295C280.748 13.1564 280.713 11.8799 280.713 11.0577C295.557 11.0577 310.065 10.1526 324.39 11.3798C333.759 12.182 340.093 19.0487 341.776 28.7099C343.649 39.4519 341.457 49.1434 332.507 56.3904C331.225 57.4286 329.76 58.2397 328.018 59.3942C330.72 63.0916 333.308 66.6379 336.298 70.7279C337.142 69.1091 337.856 67.9625 338.365 66.7319C345.561 49.3604 352.81 32.0113 359.833 14.5704C361.182 11.2199 362.668 9.72302 366.626 9.78008C381.616 9.99823 381.623 9.81364 387.366 23.6802C391.346 33.2877 395.315 42.9009 400.305 52.5331C401.696 38.4842 403.09 24.4364 404.504 10.1593C411.563 10.1593 418.409 10.1593 425.654 10.1593C431.351 24.3011 437.112 38.605 443.267 53.8934C448.485 40.8906 453.67 28.8475 458.095 16.5327C459.963 11.3273 462.342 9.0462 468.012 9.79015C472.4 10.3663 476.925 9.90537 482.001 9.90537C484.352 34.506 486.682 58.8952 489.042 83.6122C481.918 83.6122 475.277 83.6122 468.028 83.6122C466.905 72.5425 465.775 61.4101 464.646 50.2777C464.045 50.2341 463.445 50.1916 462.844 50.148C460.471 57.6255 458.107 65.1075 455.723 72.5794C452.103 83.9188 452.087 83.6447 440.116 84.034C435.471 84.185 433.697 82.6871 432.489 78.3453C429.653 68.1504 426.209 58.1278 421.937 48.0202C420.809 59.8316 419.681 71.6464 418.512 83.893C409.8 83.893 401.39 84.4255 393.136 83.5261C391.024 83.2968 389.404 78.5444 387.557 75.8696C387.235 72.481 385.529 71.266 382.015 71.4271C375.531 71.7269 369.006 71.8243 362.537 71.4036C358.076 71.1105 355.971 72.7349 355.543 76.9838ZM27.1796 55.7449C27.1796 58.9915 27.1796 61.6999 27.1796 64.6745C36.9841 64.6745 46.4675 64.6745 56.2675 64.6745C60.3374 58.3873 64.5728 51.8439 68.8788 45.192C64.5426 38.6229 60.2915 32.1813 56.7004 26.7421C54.3433 27.8429 52.7826 29.1709 51.1873 29.2145C43.2355 29.4338 35.2736 29.314 27.2658 29.314C27.2658 32.5673 27.2658 35.2131 27.2658 38.2683C34.8786 38.2683 42.0899 38.2683 49.3202 38.2683C49.3202 44.3351 49.3202 49.9723 49.3202 55.7438C41.827 55.7449 34.75 55.7449 27.1796 55.7449ZM246.264 39.8759C257.976 39.8759 269.104 39.8759 280.362 39.8759C280.362 36.6394 280.362 33.818 280.362 30.6353C276.142 31.7294 272.41 32.989 268.575 33.5629C266.729 33.8404 264.23 33.4074 262.813 32.2954C256.471 27.3182 249.721 25.9143 242.497 29.6318C235.178 33.4007 231.753 39.7864 232.154 47.9877C232.544 55.9608 236.498 61.7726 243.829 64.9576C252.77 68.8429 262.798 64.6645 265.777 55.5939C259.199 55.5939 252.775 55.5939 246.264 55.5939C246.264 50.2363 246.264 45.4001 246.264 39.8759ZM113.298 21.9249C108.261 29.5669 103.894 36.0308 99.751 42.6358C99.035 43.7769 98.5864 45.9371 99.1838 46.9149C103.49 53.9628 108.096 60.8273 113.299 68.8116C113.298 52.7501 113.298 38.0222 113.298 21.9249ZM302.132 43.3428C306.261 43.3428 310.135 43.5923 313.964 43.2779C318.399 42.9132 321.203 40.3871 321.259 35.7254C321.32 30.8031 318.455 28.1506 313.76 27.7724C309.954 27.4659 306.101 27.7098 302.131 27.7098C302.132 33.1602 302.132 38.0725 302.132 43.3428ZM178.467 27.7613C178.467 33.2631 178.467 38.1754 178.467 43.3092C182.622 43.3092 186.502 43.6046 190.316 43.2309C194.705 42.8002 197.428 40.2518 197.425 35.5509C197.423 30.8545 194.687 28.296 190.319 27.8429C186.51 27.4491 182.627 27.7613 178.467 27.7613ZM134.932 37.8085C142.474 37.8085 149.62 37.8085 156.822 37.8085C156.822 34.9311 156.822 32.3883 156.822 29.5646C149.451 29.5646 142.297 29.5646 134.932 29.5646C134.932 32.3346 134.932 34.883 134.932 37.8085ZM134.912 64.1857C142.649 64.1857 149.777 64.1857 156.714 64.1857C156.714 61.1942 156.714 58.6659 156.714 56.0559C149.261 56.0559 142.124 56.0559 134.912 56.0559C134.912 58.9467 134.912 61.4974 134.912 64.1857ZM371.693 34.5944C368.804 42.2431 366.346 48.7518 363.814 55.4541C369.478 55.4541 374.407 55.4541 379.795 55.4541C377.158 48.6645 374.681 42.2867 371.693 34.5944Z" fill="white"/>
<path fill-rule="evenodd" clip-rule="evenodd" d="M355.543 76.9838C354.366 82.5606 351.156 84.6224 345.325 84.1246C338.472 83.5384 331.526 84.1246 324.644 83.7588C322.817 83.6626 320.496 82.3693 319.399 80.8893C315.412 75.5049 311.974 69.7155 308.047 64.2841C306.889 62.6787 304.793 61.7524 301.988 59.6716C301.988 68.7456 301.988 75.9546 301.988 83.5272C294.854 83.5272 288.077 83.5272 280.943 83.5272C280.789 80.1699 280.639 76.9055 280.422 72.1912C268.656 83.9255 255.438 88.5771 240.221 84.4043C225.158 80.2729 215.73 70.1473 211.497 54.6139C209.043 56.2047 206.66 57.7485 204.171 59.3629C210.003 67.3572 215.671 75.1245 222.06 83.8796C213.628 83.8796 206.278 84.025 198.943 83.742C197.701 83.6939 196.248 82.0225 195.371 80.7673C191.534 75.2666 187.975 69.5734 184.085 64.1141C183.001 62.5926 181.128 61.6327 179.616 60.4167C179.157 60.7199 178.696 61.0242 178.236 61.3273C178.236 68.6796 178.236 76.0329 178.236 83.8919C169.669 83.8919 161.699 83.8919 153.728 83.8919C136.946 83.8919 120.162 83.7868 103.38 83.9758C99.6413 84.0172 97.2741 83.1222 95.3432 79.6833C91.8204 73.4151 87.7303 67.4646 83.4624 60.7266C79.0569 67.6425 75.119 74.1132 70.8354 80.3467C69.7536 81.9196 67.5755 83.7219 65.8817 83.7409C46.3041 83.9646 26.7221 83.8651 7.14109 83.8304C6.80884 83.8304 6.47657 83.5462 6 83.3281C6 59.0082 6 34.6246 6 9.89978C26.9234 9.89978 47.6018 9.84161 68.2758 10.0296C69.6541 10.0419 71.4216 11.6495 72.311 12.9807C76.0184 18.5229 79.4585 24.2429 83.4512 30.6241C87.3634 24.3246 90.7654 18.4591 94.6149 12.9035C95.6453 11.4179 98.036 10.0374 99.8092 10.0284C130.394 9.86062 160.98 9.79015 191.564 9.98593C202.642 10.0564 212.144 13.5658 217.077 25.0383C236.261 4.21221 257.326 2.15153 280.338 20.6015C280.372 19.9985 280.407 19.3955 280.442 18.7936C280.533 17.3393 280.652 15.8849 280.703 14.4295C280.748 13.1564 280.713 11.8799 280.713 11.0577C295.557 11.0577 310.065 10.1526 324.39 11.3798C333.759 12.182 340.093 19.0487 341.776 28.7099C343.649 39.4519 341.457 49.1434 332.507 56.3904C331.225 57.4286 329.76 58.2397 328.018 59.3942C330.72 63.0916 333.308 66.6379 336.298 70.7279C337.142 69.1091 337.856 67.9625 338.365 66.7319C345.561 49.3604 352.81 32.0113 359.833 14.5704C361.182 11.2199 362.668 9.72302 366.626 9.78008C381.616 9.99823 381.623 9.81364 387.366 23.6802C391.346 33.2877 395.315 42.9009 400.305 52.5331C401.696 38.4842 403.09 24.4364 404.504 10.1593C411.563 10.1593 418.409 10.1593 425.654 10.1593C431.351 24.3011 437.112 38.605 443.267 53.8934C448.485 40.8906 453.67 28.8475 458.095 16.5327C459.963 11.3273 462.342 9.0462 468.012 9.79015C472.4 10.3663 476.925 9.90537 482.001 9.90537C484.352 34.506 486.682 58.8952 489.042 83.6122C481.918 83.6122 475.277 83.6122 468.028 83.6122C466.905 72.5425 465.775 61.4101 464.646 50.2777C464.045 50.2341 463.445 50.1916 462.844 50.148C460.471 57.6255 458.107 65.1075 455.723 72.5794C452.103 83.9188 452.087 83.6447 440.116 84.034C435.471 84.185 433.697 82.6871 432.489 78.3453C429.653 68.1504 426.209 58.1278 421.937 48.0202C420.809 59.8316 419.681 71.6464 418.512 83.893C409.8 83.893 401.39 84.4255 393.136 83.5261C391.024 83.2968 389.404 78.5444 387.557 75.8696C387.235 72.481 385.529 71.266 382.015 71.4271C375.531 71.7269 369.006 71.8243 362.537 71.4036C358.076 71.1105 355.971 72.7349 355.543 76.9838ZM27.1796 55.7449C27.1796 58.9915 27.1796 61.6999 27.1796 64.6745C36.9841 64.6745 46.4675 64.6745 56.2675 64.6745C60.3374 58.3873 64.5728 51.8439 68.8788 45.192C64.5426 38.6229 60.2915 32.1813 56.7004 26.7421C54.3433 27.8429 52.7826 29.1709 51.1873 29.2145C43.2355 29.4338 35.2736 29.314 27.2658 29.314C27.2658 32.5673 27.2658 35.2131 27.2658 38.2683C34.8786 38.2683 42.0899 38.2683 49.3202 38.2683C49.3202 44.3351 49.3202 49.9723 49.3202 55.7438C41.827 55.7449 34.75 55.7449 27.1796 55.7449ZM246.264 39.8759C257.976 39.8759 269.104 39.8759 280.362 39.8759C280.362 36.6394 280.362 33.818 280.362 30.6353C276.142 31.7294 272.41 32.989 268.575 33.5629C266.729 33.8404 264.23 33.4074 262.813 32.2954C256.471 27.3182 249.721 25.9143 242.497 29.6318C235.178 33.4007 231.753 39.7864 232.154 47.9877C232.544 55.9608 236.498 61.7726 243.829 64.9576C252.77 68.8429 262.798 64.6645 265.777 55.5939C259.199 55.5939 252.775 55.5939 246.264 55.5939C246.264 50.2363 246.264 45.4001 246.264 39.8759ZM113.298 21.9249C108.261 29.5669 103.894 36.0308 99.751 42.6358C99.035 43.7769 98.5864 45.9371 99.1838 46.9149C103.49 53.9628 108.096 60.8273 113.299 68.8116C113.298 52.7501 113.298 38.0222 113.298 21.9249ZM302.132 43.3428C306.261 43.3428 310.135 43.5923 313.964 43.2779C318.399 42.9132 321.203 40.3871 321.259 35.7254C321.32 30.8031 318.455 28.1506 313.76 27.7724C309.954 27.4659 306.101 27.7098 302.131 27.7098C302.132 33.1602 302.132 38.0725 302.132 43.3428ZM178.467 27.7613C178.467 33.2631 178.467 38.1754 178.467 43.3092C182.622 43.3092 186.502 43.6046 190.316 43.2309C194.705 42.8002 197.428 40.2518 197.425 35.5509C197.423 30.8545 194.687 28.296 190.319 27.8429C186.51 27.4491 182.627 27.7613 178.467 27.7613ZM134.932 37.8085C142.474 37.8085 149.62 37.8085 156.822 37.8085C156.822 34.9311 156.822 32.3883 156.822 29.5646C149.451 29.5646 142.297 29.5646 134.932 29.5646C134.932 32.3346 134.932 34.883 134.932 37.8085ZM134.912 64.1857C142.649 64.1857 149.777 64.1857 156.714 64.1857C156.714 61.1942 156.714 58.6659 156.714 56.0559C149.261 56.0559 142.124 56.0559 134.912 56.0559C134.912 58.9467 134.912 61.4974 134.912 64.1857ZM371.693 34.5944C368.804 42.2431 366.346 48.7518 363.814 55.4541C369.478 55.4541 374.407 55.4541 379.795 55.4541C377.158 48.6645 374.681 42.2867 371.693 34.5944Z" stroke="#535353" stroke-width="4" mask="url(#path-1-outside-1_654_224)"/>
<g filter="url(#filter1_d_654_224)">
<mask id="path-2-outside-2_654_224" maskUnits="userSpaceOnUse" x="8.64868" y="0.86377" width="490" height="84" fill="black">
<rect fill="white" x="8.64868" y="0.86377" width="490" height="84"/>
<path fill-rule="evenodd" clip-rule="evenodd" d="M11.6487 79.4782C11.6487 54.5073 11.6487 30.334 11.6487 5.53195C15.0048 5.53195 18.1194 5.53195 21.2328 5.53195C38.0113 5.53195 54.791 5.63823 71.5662 5.4447C75.0051 5.40554 76.9931 6.47168 78.6622 9.41839C81.7611 14.8867 85.2314 20.1458 89.0182 26.2529C92.7984 20.1592 96.2989 14.7759 99.5118 9.22597C101.075 6.52426 102.885 5.43239 106.14 5.44917C136.153 5.59236 166.169 5.48385 196.182 5.56664C207.655 5.59796 217.454 8.97537 222.648 20.4456C242.598 -2.82489 270.356 0.440655 285.951 17.6208C285.951 13.4256 285.951 9.85693 285.951 4.95806C301.194 5.59125 315.879 5.4033 330.346 7.09369C339.486 8.16095 345.563 14.8856 347.219 24.2985C349.112 35.0539 346.887 44.7095 337.993 51.9835C336.717 53.0261 335.275 53.8651 333.534 55.0566C336.232 58.7607 338.803 62.2891 341.953 66.6141C348.039 51.9689 353.785 38.1527 359.524 24.3343C361.665 19.177 363.569 13.9011 366.059 8.91832C366.826 7.38455 369.123 5.76017 370.8 5.66956C386.845 4.79807 386.843 4.89316 392.993 19.7307C396.772 28.845 400.568 37.9525 404.388 47.0499C404.502 47.3206 404.941 47.4538 405.72 47.9851C407.108 33.8613 408.47 20.0261 409.894 5.54202C416.386 5.54202 422.671 5.30821 428.912 5.72997C430.237 5.81946 431.886 8.10278 432.557 9.71821C437.902 22.6014 443.049 35.5674 448.65 49.4876C453.953 36.2162 459.117 23.9159 463.732 11.4131C465.408 6.8733 467.536 4.87974 472.539 5.4212C477.299 5.93693 482.159 5.53195 487.391 5.53195C489.738 30.2187 492.042 54.4648 494.385 79.1214C487.234 79.1214 480.611 79.1214 473.292 79.1214C472.187 67.5001 471.072 55.7882 469.959 44.0763C469.601 43.9913 469.242 43.9074 468.885 43.8224C467.661 47.55 466.417 51.2697 465.221 55.0051C463.916 59.084 462.667 63.1807 461.374 67.2618C457.023 80.9919 457.01 81.0814 442.487 79.3395C441.066 79.1695 439.219 77.2341 438.702 75.7283C435.374 66.0469 432.368 56.2558 429.238 46.5062C428.94 45.5799 428.515 44.695 427.278 43.922C426.176 55.6484 425.072 67.377 423.935 79.4816C415.301 79.4816 407.113 79.721 398.963 79.2746C397.367 79.1874 394.978 76.6613 394.568 74.887C393.078 68.4454 389.504 66.0927 383.077 67.1253C380.35 67.5639 377.458 67.4934 374.707 67.1432C366.732 66.1274 360.542 67.4744 358.989 76.9197C358.817 77.9691 356.345 79.3294 354.908 79.3686C346.53 79.6013 338.134 79.6651 329.761 79.3373C327.98 79.2668 325.747 77.723 324.624 76.1948C320.654 70.7981 317.187 65.0322 313.273 59.5919C312.21 58.1129 310.244 57.2839 307.446 55.249C307.446 64.3509 307.446 71.5331 307.446 79.0956C300.197 79.0956 293.446 79.0956 286.196 79.0956C286.196 75.3848 286.196 71.9392 286.196 67.1332C274.58 79.5297 261.368 84.0773 246.065 80.0879C230.732 76.0907 221.243 65.7829 216.945 50.2058C214.521 51.8145 212.255 53.3192 209.734 54.9939C215.51 62.9178 221.151 70.6582 227.573 79.4682C219.189 79.4682 212.024 79.6393 204.88 79.3227C203.461 79.259 201.778 77.5663 200.813 76.2026C196.939 70.7309 193.412 65.0154 189.499 59.5729C188.451 58.114 186.497 57.3074 183.704 55.2993C183.704 64.4326 183.704 71.6327 183.704 79.7031C177.67 79.7031 172.139 79.7188 166.609 79.6997C146.855 79.6326 127.098 79.6449 107.347 79.3406C105.413 79.3115 102.848 77.7688 101.708 76.1366C97.3751 69.9344 93.5077 63.4078 89.0417 56.3308C84.6015 63.3217 80.6446 69.7901 76.3968 76.0617C75.3945 77.5406 73.4244 79.3149 71.8806 79.3317C51.9741 79.5532 32.062 79.4782 11.6487 79.4782ZM32.6605 60.2385C36.6454 60.2385 39.9859 60.281 43.3241 60.2284C49.5587 60.1311 56.9255 61.9882 61.7125 59.2898C66.598 56.5355 68.9495 49.2862 72.4108 44.0025C72.6144 43.6926 72.9836 43.3917 72.9993 43.0717C73.0742 41.595 73.6246 39.7614 72.968 38.6919C69.4015 32.8847 65.5285 27.2653 62.4061 22.5544C59.927 23.4874 58.0834 24.737 56.2028 24.793C48.4613 25.0223 40.7085 24.8892 32.6884 24.8892C32.6884 28.0641 32.6884 30.5756 32.6884 33.7371C40.2812 33.7371 47.6088 33.7371 55.0405 33.7371C55.0405 39.8755 55.0405 45.3595 55.0405 51.4442C47.4444 51.4442 40.1257 51.4442 32.6594 51.4442C32.6605 54.5878 32.6605 57.1229 32.6605 60.2385ZM252.103 51.1769C252.103 45.7925 252.103 40.8846 252.103 35.4443C263.577 35.4443 274.678 35.4443 285.816 35.4443C285.816 32.1866 285.816 29.4759 285.816 26.282C281.611 27.366 277.888 28.6201 274.065 29.1839C272.205 29.458 269.7 29.0206 268.268 27.9041C261.92 22.9504 255.168 21.5397 247.961 25.2762C240.666 29.0586 237.232 35.4499 237.652 43.6434C238.061 51.6042 242.142 57.1519 249.335 60.639C256.886 64.2983 270.213 59.8536 270.972 51.1769C264.682 51.1769 258.425 51.1769 252.103 51.1769ZM118.934 17.4396C113.264 26.0538 108.468 33.34 103.528 40.8477C108.454 48.4282 113.301 55.8878 118.934 64.5568C118.934 48.1697 118.934 33.5503 118.934 17.4396ZM307.555 38.9224C311.882 38.9224 315.795 39.2155 319.646 38.8463C324.126 38.4156 326.781 35.6815 326.729 31.0298C326.681 26.6523 324.1 23.9673 319.913 23.5221C315.919 23.097 311.844 23.4304 307.555 23.4304C307.555 28.6593 307.555 33.4339 307.555 38.9224ZM184.078 23.3722C184.078 28.8584 184.078 33.755 184.078 38.9593C188.105 38.9593 191.797 39.192 195.448 38.9C199.83 38.5487 202.766 36.2352 202.924 31.5165C203.091 26.5348 200.195 23.917 195.564 23.4471C191.919 23.078 188.206 23.3722 184.078 23.3722ZM140.496 33.425C148.077 33.425 155.177 33.425 162.33 33.425C162.33 30.4861 162.33 27.9679 162.33 25.1599C154.948 25.1599 147.833 25.1599 140.496 25.1599C140.496 28.0104 140.496 30.5488 140.496 33.425ZM162.309 51.6311C154.759 51.6311 147.763 51.6311 140.684 51.6311C140.684 54.6035 140.684 57.2571 140.684 59.9387C148.066 59.9387 155.056 59.9387 162.309 59.9387C162.309 57.1117 162.309 54.5878 162.309 51.6311ZM377.119 30.2579C374.219 37.8551 371.756 44.3113 369.155 51.1265C374.819 51.1265 379.578 51.1265 385.227 51.1265C382.529 44.1815 380.024 37.7354 377.119 30.2579Z"/>
</mask>
<path fill-rule="evenodd" clip-rule="evenodd" d="M11.6487 79.4782C11.6487 54.5073 11.6487 30.334 11.6487 5.53195C15.0048 5.53195 18.1194 5.53195 21.2328 5.53195C38.0113 5.53195 54.791 5.63823 71.5662 5.4447C75.0051 5.40554 76.9931 6.47168 78.6622 9.41839C81.7611 14.8867 85.2314 20.1458 89.0182 26.2529C92.7984 20.1592 96.2989 14.7759 99.5118 9.22597C101.075 6.52426 102.885 5.43239 106.14 5.44917C136.153 5.59236 166.169 5.48385 196.182 5.56664C207.655 5.59796 217.454 8.97537 222.648 20.4456C242.598 -2.82489 270.356 0.440655 285.951 17.6208C285.951 13.4256 285.951 9.85693 285.951 4.95806C301.194 5.59125 315.879 5.4033 330.346 7.09369C339.486 8.16095 345.563 14.8856 347.219 24.2985C349.112 35.0539 346.887 44.7095 337.993 51.9835C336.717 53.0261 335.275 53.8651 333.534 55.0566C336.232 58.7607 338.803 62.2891 341.953 66.6141C348.039 51.9689 353.785 38.1527 359.524 24.3343C361.665 19.177 363.569 13.9011 366.059 8.91832C366.826 7.38455 369.123 5.76017 370.8 5.66956C386.845 4.79807 386.843 4.89316 392.993 19.7307C396.772 28.845 400.568 37.9525 404.388 47.0499C404.502 47.3206 404.941 47.4538 405.72 47.9851C407.108 33.8613 408.47 20.0261 409.894 5.54202C416.386 5.54202 422.671 5.30821 428.912 5.72997C430.237 5.81946 431.886 8.10278 432.557 9.71821C437.902 22.6014 443.049 35.5674 448.65 49.4876C453.953 36.2162 459.117 23.9159 463.732 11.4131C465.408 6.8733 467.536 4.87974 472.539 5.4212C477.299 5.93693 482.159 5.53195 487.391 5.53195C489.738 30.2187 492.042 54.4648 494.385 79.1214C487.234 79.1214 480.611 79.1214 473.292 79.1214C472.187 67.5001 471.072 55.7882 469.959 44.0763C469.601 43.9913 469.242 43.9074 468.885 43.8224C467.661 47.55 466.417 51.2697 465.221 55.0051C463.916 59.084 462.667 63.1807 461.374 67.2618C457.023 80.9919 457.01 81.0814 442.487 79.3395C441.066 79.1695 439.219 77.2341 438.702 75.7283C435.374 66.0469 432.368 56.2558 429.238 46.5062C428.94 45.5799 428.515 44.695 427.278 43.922C426.176 55.6484 425.072 67.377 423.935 79.4816C415.301 79.4816 407.113 79.721 398.963 79.2746C397.367 79.1874 394.978 76.6613 394.568 74.887C393.078 68.4454 389.504 66.0927 383.077 67.1253C380.35 67.5639 377.458 67.4934 374.707 67.1432C366.732 66.1274 360.542 67.4744 358.989 76.9197C358.817 77.9691 356.345 79.3294 354.908 79.3686C346.53 79.6013 338.134 79.6651 329.761 79.3373C327.98 79.2668 325.747 77.723 324.624 76.1948C320.654 70.7981 317.187 65.0322 313.273 59.5919C312.21 58.1129 310.244 57.2839 307.446 55.249C307.446 64.3509 307.446 71.5331 307.446 79.0956C300.197 79.0956 293.446 79.0956 286.196 79.0956C286.196 75.3848 286.196 71.9392 286.196 67.1332C274.58 79.5297 261.368 84.0773 246.065 80.0879C230.732 76.0907 221.243 65.7829 216.945 50.2058C214.521 51.8145 212.255 53.3192 209.734 54.9939C215.51 62.9178 221.151 70.6582 227.573 79.4682C219.189 79.4682 212.024 79.6393 204.88 79.3227C203.461 79.259 201.778 77.5663 200.813 76.2026C196.939 70.7309 193.412 65.0154 189.499 59.5729C188.451 58.114 186.497 57.3074 183.704 55.2993C183.704 64.4326 183.704 71.6327 183.704 79.7031C177.67 79.7031 172.139 79.7188 166.609 79.6997C146.855 79.6326 127.098 79.6449 107.347 79.3406C105.413 79.3115 102.848 77.7688 101.708 76.1366C97.3751 69.9344 93.5077 63.4078 89.0417 56.3308C84.6015 63.3217 80.6446 69.7901 76.3968 76.0617C75.3945 77.5406 73.4244 79.3149 71.8806 79.3317C51.9741 79.5532 32.062 79.4782 11.6487 79.4782ZM32.6605 60.2385C36.6454 60.2385 39.9859 60.281 43.3241 60.2284C49.5587 60.1311 56.9255 61.9882 61.7125 59.2898C66.598 56.5355 68.9495 49.2862 72.4108 44.0025C72.6144 43.6926 72.9836 43.3917 72.9993 43.0717C73.0742 41.595 73.6246 39.7614 72.968 38.6919C69.4015 32.8847 65.5285 27.2653 62.4061 22.5544C59.927 23.4874 58.0834 24.737 56.2028 24.793C48.4613 25.0223 40.7085 24.8892 32.6884 24.8892C32.6884 28.0641 32.6884 30.5756 32.6884 33.7371C40.2812 33.7371 47.6088 33.7371 55.0405 33.7371C55.0405 39.8755 55.0405 45.3595 55.0405 51.4442C47.4444 51.4442 40.1257 51.4442 32.6594 51.4442C32.6605 54.5878 32.6605 57.1229 32.6605 60.2385ZM252.103 51.1769C252.103 45.7925 252.103 40.8846 252.103 35.4443C263.577 35.4443 274.678 35.4443 285.816 35.4443C285.816 32.1866 285.816 29.4759 285.816 26.282C281.611 27.366 277.888 28.6201 274.065 29.1839C272.205 29.458 269.7 29.0206 268.268 27.9041C261.92 22.9504 255.168 21.5397 247.961 25.2762C240.666 29.0586 237.232 35.4499 237.652 43.6434C238.061 51.6042 242.142 57.1519 249.335 60.639C256.886 64.2983 270.213 59.8536 270.972 51.1769C264.682 51.1769 258.425 51.1769 252.103 51.1769ZM118.934 17.4396C113.264 26.0538 108.468 33.34 103.528 40.8477C108.454 48.4282 113.301 55.8878 118.934 64.5568C118.934 48.1697 118.934 33.5503 118.934 17.4396ZM307.555 38.9224C311.882 38.9224 315.795 39.2155 319.646 38.8463C324.126 38.4156 326.781 35.6815 326.729 31.0298C326.681 26.6523 324.1 23.9673 319.913 23.5221C315.919 23.097 311.844 23.4304 307.555 23.4304C307.555 28.6593 307.555 33.4339 307.555 38.9224ZM184.078 23.3722C184.078 28.8584 184.078 33.755 184.078 38.9593C188.105 38.9593 191.797 39.192 195.448 38.9C199.83 38.5487 202.766 36.2352 202.924 31.5165C203.091 26.5348 200.195 23.917 195.564 23.4471C191.919 23.078 188.206 23.3722 184.078 23.3722ZM140.496 33.425C148.077 33.425 155.177 33.425 162.33 33.425C162.33 30.4861 162.33 27.9679 162.33 25.1599C154.948 25.1599 147.833 25.1599 140.496 25.1599C140.496 28.0104 140.496 30.5488 140.496 33.425ZM162.309 51.6311C154.759 51.6311 147.763 51.6311 140.684 51.6311C140.684 54.6035 140.684 57.2571 140.684 59.9387C148.066 59.9387 155.056 59.9387 162.309 59.9387C162.309 57.1117 162.309 54.5878 162.309 51.6311ZM377.119 30.2579C374.219 37.8551 371.756 44.3113 369.155 51.1265C374.819 51.1265 379.578 51.1265 385.227 51.1265C382.529 44.1815 380.024 37.7354 377.119 30.2579Z" fill="#F97E03"/>
<path fill-rule="evenodd" clip-rule="evenodd" d="M11.6487 79.4782C11.6487 54.5073 11.6487 30.334 11.6487 5.53195C15.0048 5.53195 18.1194 5.53195 21.2328 5.53195C38.0113 5.53195 54.791 5.63823 71.5662 5.4447C75.0051 5.40554 76.9931 6.47168 78.6622 9.41839C81.7611 14.8867 85.2314 20.1458 89.0182 26.2529C92.7984 20.1592 96.2989 14.7759 99.5118 9.22597C101.075 6.52426 102.885 5.43239 106.14 5.44917C136.153 5.59236 166.169 5.48385 196.182 5.56664C207.655 5.59796 217.454 8.97537 222.648 20.4456C242.598 -2.82489 270.356 0.440655 285.951 17.6208C285.951 13.4256 285.951 9.85693 285.951 4.95806C301.194 5.59125 315.879 5.4033 330.346 7.09369C339.486 8.16095 345.563 14.8856 347.219 24.2985C349.112 35.0539 346.887 44.7095 337.993 51.9835C336.717 53.0261 335.275 53.8651 333.534 55.0566C336.232 58.7607 338.803 62.2891 341.953 66.6141C348.039 51.9689 353.785 38.1527 359.524 24.3343C361.665 19.177 363.569 13.9011 366.059 8.91832C366.826 7.38455 369.123 5.76017 370.8 5.66956C386.845 4.79807 386.843 4.89316 392.993 19.7307C396.772 28.845 400.568 37.9525 404.388 47.0499C404.502 47.3206 404.941 47.4538 405.72 47.9851C407.108 33.8613 408.47 20.0261 409.894 5.54202C416.386 5.54202 422.671 5.30821 428.912 5.72997C430.237 5.81946 431.886 8.10278 432.557 9.71821C437.902 22.6014 443.049 35.5674 448.65 49.4876C453.953 36.2162 459.117 23.9159 463.732 11.4131C465.408 6.8733 467.536 4.87974 472.539 5.4212C477.299 5.93693 482.159 5.53195 487.391 5.53195C489.738 30.2187 492.042 54.4648 494.385 79.1214C487.234 79.1214 480.611 79.1214 473.292 79.1214C472.187 67.5001 471.072 55.7882 469.959 44.0763C469.601 43.9913 469.242 43.9074 468.885 43.8224C467.661 47.55 466.417 51.2697 465.221 55.0051C463.916 59.084 462.667 63.1807 461.374 67.2618C457.023 80.9919 457.01 81.0814 442.487 79.3395C441.066 79.1695 439.219 77.2341 438.702 75.7283C435.374 66.0469 432.368 56.2558 429.238 46.5062C428.94 45.5799 428.515 44.695 427.278 43.922C426.176 55.6484 425.072 67.377 423.935 79.4816C415.301 79.4816 407.113 79.721 398.963 79.2746C397.367 79.1874 394.978 76.6613 394.568 74.887C393.078 68.4454 389.504 66.0927 383.077 67.1253C380.35 67.5639 377.458 67.4934 374.707 67.1432C366.732 66.1274 360.542 67.4744 358.989 76.9197C358.817 77.9691 356.345 79.3294 354.908 79.3686C346.53 79.6013 338.134 79.6651 329.761 79.3373C327.98 79.2668 325.747 77.723 324.624 76.1948C320.654 70.7981 317.187 65.0322 313.273 59.5919C312.21 58.1129 310.244 57.2839 307.446 55.249C307.446 64.3509 307.446 71.5331 307.446 79.0956C300.197 79.0956 293.446 79.0956 286.196 79.0956C286.196 75.3848 286.196 71.9392 286.196 67.1332C274.58 79.5297 261.368 84.0773 246.065 80.0879C230.732 76.0907 221.243 65.7829 216.945 50.2058C214.521 51.8145 212.255 53.3192 209.734 54.9939C215.51 62.9178 221.151 70.6582 227.573 79.4682C219.189 79.4682 212.024 79.6393 204.88 79.3227C203.461 79.259 201.778 77.5663 200.813 76.2026C196.939 70.7309 193.412 65.0154 189.499 59.5729C188.451 58.114 186.497 57.3074 183.704 55.2993C183.704 64.4326 183.704 71.6327 183.704 79.7031C177.67 79.7031 172.139 79.7188 166.609 79.6997C146.855 79.6326 127.098 79.6449 107.347 79.3406C105.413 79.3115 102.848 77.7688 101.708 76.1366C97.3751 69.9344 93.5077 63.4078 89.0417 56.3308C84.6015 63.3217 80.6446 69.7901 76.3968 76.0617C75.3945 77.5406 73.4244 79.3149 71.8806 79.3317C51.9741 79.5532 32.062 79.4782 11.6487 79.4782ZM32.6605 60.2385C36.6454 60.2385 39.9859 60.281 43.3241 60.2284C49.5587 60.1311 56.9255 61.9882 61.7125 59.2898C66.598 56.5355 68.9495 49.2862 72.4108 44.0025C72.6144 43.6926 72.9836 43.3917 72.9993 43.0717C73.0742 41.595 73.6246 39.7614 72.968 38.6919C69.4015 32.8847 65.5285 27.2653 62.4061 22.5544C59.927 23.4874 58.0834 24.737 56.2028 24.793C48.4613 25.0223 40.7085 24.8892 32.6884 24.8892C32.6884 28.0641 32.6884 30.5756 32.6884 33.7371C40.2812 33.7371 47.6088 33.7371 55.0405 33.7371C55.0405 39.8755 55.0405 45.3595 55.0405 51.4442C47.4444 51.4442 40.1257 51.4442 32.6594 51.4442C32.6605 54.5878 32.6605 57.1229 32.6605 60.2385ZM252.103 51.1769C252.103 45.7925 252.103 40.8846 252.103 35.4443C263.577 35.4443 274.678 35.4443 285.816 35.4443C285.816 32.1866 285.816 29.4759 285.816 26.282C281.611 27.366 277.888 28.6201 274.065 29.1839C272.205 29.458 269.7 29.0206 268.268 27.9041C261.92 22.9504 255.168 21.5397 247.961 25.2762C240.666 29.0586 237.232 35.4499 237.652 43.6434C238.061 51.6042 242.142 57.1519 249.335 60.639C256.886 64.2983 270.213 59.8536 270.972 51.1769C264.682 51.1769 258.425 51.1769 252.103 51.1769ZM118.934 17.4396C113.264 26.0538 108.468 33.34 103.528 40.8477C108.454 48.4282 113.301 55.8878 118.934 64.5568C118.934 48.1697 118.934 33.5503 118.934 17.4396ZM307.555 38.9224C311.882 38.9224 315.795 39.2155 319.646 38.8463C324.126 38.4156 326.781 35.6815 326.729 31.0298C326.681 26.6523 324.1 23.9673 319.913 23.5221C315.919 23.097 311.844 23.4304 307.555 23.4304C307.555 28.6593 307.555 33.4339 307.555 38.9224ZM184.078 23.3722C184.078 28.8584 184.078 33.755 184.078 38.9593C188.105 38.9593 191.797 39.192 195.448 38.9C199.83 38.5487 202.766 36.2352 202.924 31.5165C203.091 26.5348 200.195 23.917 195.564 23.4471C191.919 23.078 188.206 23.3722 184.078 23.3722ZM140.496 33.425C148.077 33.425 155.177 33.425 162.33 33.425C162.33 30.4861 162.33 27.9679 162.33 25.1599C154.948 25.1599 147.833 25.1599 140.496 25.1599C140.496 28.0104 140.496 30.5488 140.496 33.425ZM162.309 51.6311C154.759 51.6311 147.763 51.6311 140.684 51.6311C140.684 54.6035 140.684 57.2571 140.684 59.9387C148.066 59.9387 155.056 59.9387 162.309 59.9387C162.309 57.1117 162.309 54.5878 162.309 51.6311ZM377.119 30.2579C374.219 37.8551 371.756 44.3113 369.155 51.1265C374.819 51.1265 379.578 51.1265 385.227 51.1265C382.529 44.1815 380.024 37.7354 377.119 30.2579Z" stroke="#4B4B4B" stroke-width="6" mask="url(#path-2-outside-2_654_224)"/>
</g>
</g>
<defs>
<filter id="filter0_d_654_224" x="0" y="0.86377" width="501.684" height="95.0454" filterUnits="userSpaceOnUse" color-interpolation-filters="sRGB">
<feFlood flood-opacity="0" result="BackgroundImageFix"/>
<feColorMatrix in="SourceAlpha" type="matrix" values="0 0 0 0 0 0 0 0 0 0 0 0 0 0 0 0 0 0 127 0" result="hardAlpha"/>
<feOffset dy="4"/>
<feGaussianBlur stdDeviation="2"/>
<feComposite in2="hardAlpha" operator="out"/>
<feColorMatrix type="matrix" values="0 0 0 0 0 0 0 0 0 0 0 0 0 0 0 0 0 0 0.5 0"/>
<feBlend mode="normal" in2="BackgroundImageFix" result="effect1_dropShadow_654_224"/>
<feBlend mode="normal" in="SourceGraphic" in2="effect1_dropShadow_654_224" result="shape"/>
</filter>
<filter id="filter1_d_654_224" x="4.64868" y="0.86377" width="497.035" height="91.6313" filterUnits="userSpaceOnUse" color-interpolation-filters="sRGB">
<feFlood flood-opacity="0" result="BackgroundImageFix"/>
<feColorMatrix in="SourceAlpha" type="matrix" values="0 0 0 0 0 0 0 0 0 0 0 0 0 0 0 0 0 0 127 0" result="hardAlpha"/>
<feOffset dy="4"/>
<feGaussianBlur stdDeviation="2"/>
<feComposite in2="hardAlpha" operator="out"/>
<feColorMatrix type="matrix" values="0 0 0 0 0 0 0 0 0 0 0 0 0 0 0 0 0 0 0.25 0"/>
<feBlend mode="normal" in2="BackgroundImageFix" result="effect1_dropShadow_654_224"/>
<feBlend mode="normal" in="SourceGraphic" in2="effect1_dropShadow_654_224" result="shape"/>
</filter>
</defs>
</svg>
