<svg width="82" height="84" viewBox="0 0 82 84" fill="none" xmlns="http://www.w3.org/2000/svg">
<rect width="82" height="84" rx="20" fill="#FA7D00"/>
<g clip-path="url(#clip0_790_128)">
<path d="M26.1651 37.0093C26.1651 41.2858 27.555 45.2363 29.8965 48.4414L18.0866 60.2462C16.9206 61.4108 16.9206 63.3022 18.0866 64.4669C19.2527 65.6315 21.1464 65.6315 22.3124 64.4669L34.1223 52.662C37.3313 55.01 41.2866 56.3889 45.5684 56.3889C56.2868 56.3889 64.9717 47.7147 64.9717 37.0093C64.9717 26.3039 56.2868 17.6296 45.5684 17.6296C34.8499 17.6296 26.1651 26.3039 26.1651 37.0093ZM55.27 37.7546V43.7176C55.27 44.9568 54.2719 45.9537 53.0312 45.9537C51.7905 45.9537 50.7924 44.9568 50.7924 43.7176V37.7546C50.7924 36.5155 51.7905 35.5185 53.0312 35.5185C54.2719 35.5185 55.27 36.5155 55.27 37.7546ZM47.8072 28.8102V43.7176C47.8072 44.9568 46.8091 45.9537 45.5684 45.9537C44.3277 45.9537 43.3295 44.9568 43.3295 43.7176V28.8102C43.3295 27.571 44.3277 26.5741 45.5684 26.5741C46.8091 26.5741 47.8072 27.571 47.8072 28.8102ZM40.3444 34.7732V43.7176C40.3444 44.9568 39.3463 45.9537 38.1056 45.9537C36.8649 45.9537 35.8667 44.9568 35.8667 43.7176V34.7732C35.8667 33.534 36.8649 32.537 38.1056 32.537C39.3463 32.537 40.3444 33.534 40.3444 34.7732Z" fill="#D9D9D9"/>
</g>
<defs>
<clipPath id="clip0_790_128">
<rect width="47.7619" height="47.7037" fill="white" transform="matrix(-1 0 0 1 64.9717 17.6296)"/>
</clipPath>
</defs>
</svg>
