<svg width="82" height="84" viewBox="0 0 82 84" fill="none" xmlns="http://www.w3.org/2000/svg">
<rect width="82" height="84" rx="20" fill="#FA7D00"/>
<g clip-path="url(#clip0_790_127)">
<path d="M24.1517 17.6296C25.7516 17.6296 27.0441 18.962 27.0441 20.6111V22.1019L33.2809 20.4993C36.7247 19.6142 40.3583 20.0241 43.5399 21.664C47.7249 23.8255 52.651 23.8255 56.836 21.664L57.7037 21.2167C59.5657 20.2478 61.7531 21.6453 61.7531 23.7883V49.8483C61.7531 51.0875 61.0029 52.2055 59.873 52.6434L56.7366 53.8546C52.5606 55.4665 47.9147 55.2149 43.9286 53.1652C40.5029 51.3949 36.58 50.957 32.8561 51.9167L27.0441 53.4074V62.3519C27.0441 64.001 25.7516 65.3333 24.1517 65.3333C22.5518 65.3333 21.2593 64.001 21.2593 62.3519V54.8982V48.7489V23.5926V20.6111C21.2593 18.962 22.5518 17.6296 24.1517 17.6296ZM27.0441 35.062L32.8289 33.7669V39.8696L27.0441 41.1647V47.2581L31.455 46.1214C31.916 46.0003 32.368 45.8978 32.8289 45.814V39.8696L36.345 39.087C37.0953 38.9193 37.8545 38.8541 38.6138 38.8913V32.9284C39.8431 32.9656 41.0723 33.1706 42.2654 33.5247L44.3986 34.1675V40.3821L40.6294 39.2361C39.9696 39.0404 39.2917 38.9193 38.6138 38.882V45.5344C40.5842 45.7115 42.5276 46.1587 44.3986 46.8761V40.3821L46.4504 41.0063C47.6707 41.379 48.918 41.6026 50.1834 41.6958V35.7049C49.4784 35.6303 48.7734 35.4906 48.0864 35.2856L44.3986 34.1675V28.3909C43.2236 28.0369 42.0666 27.571 40.9458 26.9934C40.2046 26.6114 39.4182 26.3412 38.6138 26.1734V32.919C37.4387 32.8818 36.2637 32.9936 35.1158 33.2545L32.8289 33.7669V26.7604L27.0441 28.2512V35.062ZM50.1834 48.9072C51.702 49.047 53.2476 48.842 54.7028 48.2737L55.9683 47.7892V41.0995L55.2542 41.2672C53.5911 41.6678 51.8827 41.7983 50.1834 41.6865V48.8979V48.9072ZM55.9683 34.9875V28.3816C54.0792 28.95 52.1358 29.2295 50.1834 29.2295V35.7049C51.4398 35.8353 52.7143 35.7515 53.9526 35.4626L55.9683 34.9781V34.9875Z" fill="#D9D9D9"/>
</g>
<defs>
<clipPath id="clip0_790_127">
<rect width="40.4938" height="47.7037" fill="white" transform="translate(21.2593 17.6296)"/>
</clipPath>
</defs>
</svg>
