<svg width="82" height="84" viewBox="0 0 82 84" fill="none" xmlns="http://www.w3.org/2000/svg">
<rect width="82" height="84" rx="20" fill="#FA7D00"/>
<g clip-path="url(#clip0_790_129)">
<path d="M42.8562 40.6064V21.1494C42.8562 20.3655 43.4467 19.7036 44.206 19.7036C54.6416 19.7036 63.1031 28.4392 63.1031 39.2129C63.1031 39.9967 62.4619 40.6064 61.7027 40.6064H42.8562ZM19.9097 43.3934C19.9097 32.8288 27.5107 24.0845 37.3726 22.691C38.1488 22.5777 38.8068 23.2222 38.8068 24.0322V44.7869L52.0095 58.4173C52.5747 59.0008 52.5325 59.9589 51.8829 60.4292C48.5759 62.8679 44.5265 64.2962 40.1566 64.2962C28.9786 64.2962 19.9097 54.9422 19.9097 43.3934ZM64.3179 44.7869C65.1025 44.7869 65.7183 45.4663 65.6171 46.2676C64.9675 51.1362 62.6981 55.4648 59.3827 58.6612C58.8765 59.1489 58.0835 59.1141 57.5942 58.6002L44.206 44.7869H64.3179Z" fill="#D9D9D9"/>
</g>
<defs>
<clipPath id="clip0_790_129">
<rect width="48.5926" height="44.5926" fill="white" transform="translate(17.21 19.7036)"/>
</clipPath>
</defs>
</svg>
