<svg width="1023" height="566" viewBox="0 0 1023 566" fill="none" xmlns="http://www.w3.org/2000/svg">
<rect x="46" y="423" width="275.891" height="71.1504" rx="30" fill="#FA7D00"/>
<path d="M107.969 455.309C107.849 454.862 107.671 454.467 107.437 454.126C107.202 453.778 106.915 453.484 106.574 453.242C106.233 453.001 105.842 452.82 105.402 452.699C104.962 452.571 104.479 452.507 103.953 452.507C102.895 452.507 101.979 452.763 101.205 453.274C100.438 453.786 99.8445 454.531 99.4254 455.511C99.0064 456.484 98.7969 457.667 98.7969 459.059C98.7969 460.458 98.9993 461.651 99.4041 462.638C99.8089 463.626 100.395 464.379 101.162 464.897C101.929 465.415 102.859 465.675 103.953 465.675C104.919 465.675 105.736 465.518 106.403 465.206C107.078 464.886 107.589 464.435 107.938 463.853C108.286 463.271 108.46 462.585 108.46 461.797L109.44 461.914H104.134V458.068H113.541V460.955C113.541 462.908 113.126 464.581 112.295 465.973C111.471 467.365 110.335 468.434 108.886 469.18C107.444 469.925 105.786 470.298 103.911 470.298C101.83 470.298 100.001 469.847 98.424 468.945C96.8473 468.043 95.6186 466.758 94.7379 465.089C93.8572 463.413 93.4169 461.424 93.4169 459.123C93.4169 457.333 93.6832 455.746 94.2159 454.361C94.7486 452.969 95.4908 451.79 96.4425 450.824C97.4013 449.858 98.5092 449.126 99.7663 448.629C101.031 448.132 102.391 447.884 103.847 447.884C105.111 447.884 106.286 448.065 107.373 448.427C108.467 448.789 109.433 449.3 110.271 449.961C111.116 450.621 111.801 451.406 112.327 452.315C112.852 453.224 113.179 454.222 113.307 455.309H107.969ZM116.649 470V448.182H131.862V452.464H121.923V456.939H131.085V461.232H121.923V465.717H131.862V470H116.649ZM134.451 452.464V448.182H152.892V452.464H146.276V470H141.078V452.464H134.451ZM173.706 454.723C173.635 453.942 173.319 453.335 172.758 452.901C172.204 452.461 171.412 452.241 170.382 452.241C169.701 452.241 169.132 452.33 168.678 452.507C168.223 452.685 167.882 452.93 167.655 453.242C167.428 453.548 167.311 453.899 167.304 454.297C167.289 454.624 167.353 454.911 167.495 455.16C167.645 455.408 167.858 455.629 168.135 455.82C168.419 456.005 168.76 456.168 169.157 456.31C169.555 456.452 170.002 456.577 170.5 456.683L172.375 457.109C173.454 457.344 174.406 457.656 175.23 458.047C176.061 458.438 176.757 458.903 177.318 459.442C177.886 459.982 178.316 460.604 178.607 461.307C178.898 462.01 179.047 462.798 179.054 463.672C179.047 465.05 178.699 466.232 178.01 467.219C177.321 468.207 176.331 468.963 175.038 469.489C173.752 470.014 172.201 470.277 170.382 470.277C168.557 470.277 166.966 470.004 165.61 469.457C164.253 468.91 163.199 468.079 162.446 466.964C161.693 465.849 161.306 464.439 161.284 462.734H166.334C166.377 463.438 166.565 464.023 166.899 464.492C167.233 464.961 167.691 465.316 168.273 465.558C168.863 465.799 169.544 465.92 170.319 465.92C171.029 465.92 171.632 465.824 172.13 465.632C172.634 465.44 173.021 465.174 173.291 464.833C173.561 464.492 173.699 464.102 173.706 463.661C173.699 463.249 173.571 462.898 173.323 462.607C173.074 462.308 172.691 462.053 172.172 461.839C171.661 461.619 171.007 461.417 170.212 461.232L167.932 460.7C166.043 460.266 164.555 459.567 163.468 458.601C162.382 457.628 161.842 456.314 161.849 454.659C161.842 453.31 162.204 452.127 162.936 451.112C163.667 450.096 164.679 449.304 165.972 448.736C167.265 448.168 168.738 447.884 170.393 447.884C172.083 447.884 173.55 448.171 174.793 448.746C176.043 449.315 177.012 450.114 177.701 451.143C178.39 452.173 178.742 453.366 178.756 454.723H173.706ZM181.004 452.464V448.182H199.445V452.464H192.829V470H187.63V452.464H181.004ZM204.015 470H198.348L205.709 448.182H212.73L220.091 470H214.424L209.299 453.679H209.129L204.015 470ZM203.259 461.413H215.105V465.419H203.259V461.413ZM222.44 470V448.182H231.453C233.087 448.182 234.496 448.477 235.683 449.066C236.876 449.648 237.795 450.487 238.442 451.58C239.088 452.667 239.411 453.956 239.411 455.447C239.411 456.96 239.081 458.246 238.42 459.304C237.76 460.355 236.822 461.158 235.608 461.712C234.393 462.259 232.955 462.532 231.293 462.532H225.594V458.377H230.313C231.109 458.377 231.773 458.274 232.305 458.068C232.845 457.855 233.254 457.536 233.531 457.109C233.808 456.676 233.946 456.122 233.946 455.447C233.946 454.773 233.808 454.215 233.531 453.775C233.254 453.327 232.845 452.994 232.305 452.773C231.766 452.546 231.102 452.433 230.313 452.433H227.714V470H222.44ZM234.724 460.028L240.157 470H234.404L229.077 460.028H234.724ZM241.59 452.464V448.182H260.031V452.464H253.415V470H248.216V452.464H241.59Z" fill="#E8E8E8"/>
<path d="M9.824 128.192C8.16 128.192 6.56 127.925 5.024 127.392C3.50933 126.837 2.336 126.133 1.504 125.28L2.432 123.456C3.22133 124.224 4.27733 124.875 5.6 125.408C6.944 125.92 8.352 126.176 9.824 126.176C11.232 126.176 12.3733 126.005 13.248 125.664C14.144 125.301 14.7947 124.821 15.2 124.224C15.6267 123.627 15.84 122.965 15.84 122.24C15.84 121.365 15.584 120.661 15.072 120.128C14.5813 119.595 13.9307 119.179 13.12 118.88C12.3093 118.56 11.4133 118.283 10.432 118.048C9.45067 117.813 8.46933 117.568 7.488 117.312C6.50667 117.035 5.6 116.672 4.768 116.224C3.95733 115.776 3.296 115.189 2.784 114.464C2.29333 113.717 2.048 112.747 2.048 111.552C2.048 110.443 2.336 109.429 2.912 108.512C3.50933 107.573 4.416 106.827 5.632 106.272C6.848 105.696 8.40533 105.408 10.304 105.408C11.5627 105.408 12.8107 105.589 14.048 105.952C15.2853 106.293 16.352 106.773 17.248 107.392L16.448 109.28C15.488 108.64 14.464 108.171 13.376 107.872C12.3093 107.573 11.2747 107.424 10.272 107.424C8.928 107.424 7.81867 107.605 6.944 107.968C6.06933 108.331 5.41867 108.821 4.992 109.44C4.58667 110.037 4.384 110.72 4.384 111.488C4.384 112.363 4.62933 113.067 5.12 113.6C5.632 114.133 6.29333 114.549 7.104 114.848C7.936 115.147 8.84267 115.413 9.824 115.648C10.8053 115.883 11.776 116.139 12.736 116.416C13.7173 116.693 14.6133 117.056 15.424 117.504C16.256 117.931 16.9173 118.507 17.408 119.232C17.92 119.957 18.176 120.907 18.176 122.08C18.176 123.168 17.8773 124.181 17.28 125.12C16.6827 126.037 15.7653 126.784 14.528 127.36C13.312 127.915 11.744 128.192 9.824 128.192ZM25.4475 115.616H37.2875V117.632H25.4475V115.616ZM25.7035 125.952H39.1755V128H23.3355V105.6H38.6955V107.648H25.7035V125.952ZM49.0938 128V107.648H41.2218V105.6H59.3338V107.648H51.4618V128H49.0938ZM81.3158 128.192C79.6091 128.192 78.0304 127.915 76.5798 127.36C75.1504 126.784 73.9024 125.984 72.8358 124.96C71.7904 123.936 70.9691 122.731 70.3718 121.344C69.7958 119.957 69.5078 118.443 69.5078 116.8C69.5078 115.157 69.7958 113.643 70.3718 112.256C70.9691 110.869 71.8011 109.664 72.8678 108.64C73.9344 107.616 75.1824 106.827 76.6118 106.272C78.0624 105.696 79.6411 105.408 81.3478 105.408C83.0544 105.408 84.6118 105.675 86.0198 106.208C87.4491 106.741 88.6651 107.552 89.6678 108.64L88.1958 110.144C87.2571 109.205 86.2224 108.533 85.0918 108.128C83.9611 107.723 82.7451 107.52 81.4438 107.52C80.0571 107.52 78.7771 107.755 77.6038 108.224C76.4518 108.672 75.4384 109.323 74.5638 110.176C73.7104 111.008 73.0384 111.989 72.5477 113.12C72.0784 114.229 71.8438 115.456 71.8438 116.8C71.8438 118.123 72.0784 119.349 72.5477 120.48C73.0384 121.611 73.7104 122.603 74.5638 123.456C75.4384 124.288 76.4518 124.939 77.6038 125.408C78.7771 125.856 80.0464 126.08 81.4118 126.08C82.6918 126.08 83.8971 125.888 85.0278 125.504C86.1798 125.12 87.2358 124.469 88.1958 123.552L89.5398 125.344C88.4731 126.283 87.2251 126.997 85.7958 127.488C84.3664 127.957 82.8731 128.192 81.3158 128.192ZM87.2678 125.056V116.8H89.5398V125.344L87.2678 125.056ZM106.034 128.192C104.348 128.192 102.78 127.915 101.33 127.36C99.9004 126.784 98.6524 125.984 97.5858 124.96C96.5404 123.915 95.7191 122.709 95.1218 121.344C94.5458 119.957 94.2578 118.443 94.2578 116.8C94.2578 115.157 94.5458 113.653 95.1218 112.288C95.7191 110.901 96.5404 109.696 97.5858 108.672C98.6524 107.627 99.9004 106.827 101.33 106.272C102.759 105.696 104.327 105.408 106.034 105.408C107.719 105.408 109.276 105.696 110.706 106.272C112.135 106.827 113.372 107.616 114.418 108.64C115.484 109.664 116.306 110.869 116.882 112.256C117.479 113.643 117.778 115.157 117.778 116.8C117.778 118.443 117.479 119.957 116.882 121.344C116.306 122.731 115.484 123.936 114.418 124.96C113.372 125.984 112.135 126.784 110.706 127.36C109.276 127.915 107.719 128.192 106.034 128.192ZM106.034 126.08C107.378 126.08 108.615 125.856 109.746 125.408C110.898 124.939 111.89 124.288 112.722 123.456C113.575 122.603 114.236 121.621 114.706 120.512C115.175 119.381 115.41 118.144 115.41 116.8C115.41 115.456 115.175 114.229 114.706 113.12C114.236 111.989 113.575 111.008 112.722 110.176C111.89 109.323 110.898 108.672 109.746 108.224C108.615 107.755 107.378 107.52 106.034 107.52C104.69 107.52 103.442 107.755 102.29 108.224C101.138 108.672 100.135 109.323 99.2818 110.176C98.4498 111.008 97.7884 111.989 97.2977 113.12C96.8284 114.229 96.5938 115.456 96.5938 116.8C96.5938 118.123 96.8284 119.349 97.2977 120.48C97.7884 121.611 98.4498 122.603 99.2818 123.456C100.135 124.288 101.138 124.939 102.29 125.408C103.442 125.856 104.69 126.08 106.034 126.08ZM119.189 128L129.429 105.6H131.765L142.005 128H139.509L130.101 106.976H131.061L121.653 128H119.189ZM123.221 122.016L123.925 120.096H136.949L137.653 122.016H123.221ZM145.711 128V105.6H148.079V125.952H160.623V128H145.711ZM170.48 128.192C168.816 128.192 167.216 127.925 165.68 127.392C164.166 126.837 162.992 126.133 162.16 125.28L163.088 123.456C163.878 124.224 164.934 124.875 166.256 125.408C167.6 125.92 169.008 126.176 170.48 126.176C171.888 126.176 173.03 126.005 173.904 125.664C174.8 125.301 175.451 124.821 175.856 124.224C176.283 123.627 176.496 122.965 176.496 122.24C176.496 121.365 176.24 120.661 175.728 120.128C175.238 119.595 174.587 119.179 173.776 118.88C172.966 118.56 172.07 118.283 171.088 118.048C170.107 117.813 169.126 117.568 168.144 117.312C167.163 117.035 166.256 116.672 165.424 116.224C164.614 115.776 163.952 115.189 163.44 114.464C162.95 113.717 162.704 112.747 162.704 111.552C162.704 110.443 162.992 109.429 163.568 108.512C164.166 107.573 165.072 106.827 166.288 106.272C167.504 105.696 169.062 105.408 170.96 105.408C172.219 105.408 173.467 105.589 174.704 105.952C175.942 106.293 177.008 106.773 177.904 107.392L177.104 109.28C176.144 108.64 175.12 108.171 174.032 107.872C172.966 107.573 171.931 107.424 170.928 107.424C169.584 107.424 168.475 107.605 167.6 107.968C166.726 108.331 166.075 108.821 165.648 109.44C165.243 110.037 165.04 110.72 165.04 111.488C165.04 112.363 165.286 113.067 165.776 113.6C166.288 114.133 166.95 114.549 167.76 114.848C168.592 115.147 169.499 115.413 170.48 115.648C171.462 115.883 172.432 116.139 173.392 116.416C174.374 116.693 175.27 117.056 176.08 117.504C176.912 117.931 177.574 118.507 178.064 119.232C178.576 119.957 178.832 120.907 178.832 122.08C178.832 123.168 178.534 124.181 177.936 125.12C177.339 126.037 176.422 126.784 175.184 127.36C173.968 127.915 172.4 128.192 170.48 128.192ZM184.361 128.16C183.891 128.16 183.486 127.989 183.145 127.648C182.825 127.307 182.665 126.891 182.665 126.4C182.665 125.888 182.825 125.472 183.145 125.152C183.486 124.832 183.891 124.672 184.361 124.672C184.83 124.672 185.225 124.832 185.545 125.152C185.886 125.472 186.057 125.888 186.057 126.4C186.057 126.891 185.886 127.307 185.545 127.648C185.225 127.989 184.83 128.16 184.361 128.16ZM3.648 167V144.6H6.016V164.952H18.56V167H3.648ZM31.8463 167.192C30.1609 167.192 28.5929 166.915 27.1423 166.36C25.7129 165.784 24.4649 164.984 23.3983 163.96C22.3529 162.915 21.5316 161.709 20.9343 160.344C20.3583 158.957 20.0703 157.443 20.0703 155.8C20.0703 154.157 20.3583 152.653 20.9343 151.288C21.5316 149.901 22.3529 148.696 23.3983 147.672C24.4649 146.627 25.7129 145.827 27.1423 145.272C28.5716 144.696 30.1396 144.408 31.8463 144.408C33.5316 144.408 35.0889 144.696 36.5183 145.272C37.9476 145.827 39.1849 146.616 40.2303 147.64C41.2969 148.664 42.1183 149.869 42.6943 151.256C43.2916 152.643 43.5903 154.157 43.5903 155.8C43.5903 157.443 43.2916 158.957 42.6943 160.344C42.1183 161.731 41.2969 162.936 40.2303 163.96C39.1849 164.984 37.9476 165.784 36.5183 166.36C35.0889 166.915 33.5316 167.192 31.8463 167.192ZM31.8463 165.08C33.1903 165.08 34.4276 164.856 35.5583 164.408C36.7103 163.939 37.7023 163.288 38.5343 162.456C39.3876 161.603 40.0489 160.621 40.5183 159.512C40.9876 158.381 41.2223 157.144 41.2223 155.8C41.2223 154.456 40.9876 153.229 40.5183 152.12C40.0489 150.989 39.3876 150.008 38.5343 149.176C37.7023 148.323 36.7103 147.672 35.5583 147.224C34.4276 146.755 33.1903 146.52 31.8463 146.52C30.5023 146.52 29.2543 146.755 28.1023 147.224C26.9503 147.672 25.9476 148.323 25.0943 149.176C24.2623 150.008 23.6009 150.989 23.1102 152.12C22.6409 153.229 22.4062 154.456 22.4062 155.8C22.4062 157.123 22.6409 158.349 23.1102 159.48C23.6009 160.611 24.2623 161.603 25.0943 162.456C25.9476 163.288 26.9503 163.939 28.1023 164.408C29.2543 164.856 30.5023 165.08 31.8463 165.08ZM58.722 167.192C57.0153 167.192 55.4367 166.915 53.986 166.36C52.5567 165.784 51.3087 164.984 50.242 163.96C49.1967 162.936 48.3753 161.731 47.778 160.344C47.202 158.957 46.914 157.443 46.914 155.8C46.914 154.157 47.202 152.643 47.778 151.256C48.3753 149.869 49.2073 148.664 50.274 147.64C51.3407 146.616 52.5887 145.827 54.018 145.272C55.4687 144.696 57.0473 144.408 58.754 144.408C60.4607 144.408 62.018 144.675 63.426 145.208C64.8553 145.741 66.0713 146.552 67.074 147.64L65.602 149.144C64.6633 148.205 63.6287 147.533 62.498 147.128C61.3673 146.723 60.1513 146.52 58.85 146.52C57.4633 146.52 56.1833 146.755 55.01 147.224C53.858 147.672 52.8447 148.323 51.97 149.176C51.1167 150.008 50.4447 150.989 49.954 152.12C49.4847 153.229 49.25 154.456 49.25 155.8C49.25 157.123 49.4847 158.349 49.954 159.48C50.4447 160.611 51.1167 161.603 51.97 162.456C52.8447 163.288 53.858 163.939 55.01 164.408C56.1833 164.856 57.4527 165.08 58.818 165.08C60.098 165.08 61.3033 164.888 62.434 164.504C63.586 164.12 64.642 163.469 65.602 162.552L66.946 164.344C65.8793 165.283 64.6313 165.997 63.202 166.488C61.7727 166.957 60.2793 167.192 58.722 167.192ZM64.674 164.056V155.8H66.946V164.344L64.674 164.056ZM87.111 167L79.559 144.6H81.991L89.063 165.688H87.847L95.143 144.6H97.319L104.519 165.688H103.367L110.503 144.6H112.775L105.223 167H102.727L95.847 147H96.487L89.575 167H87.111ZM126.721 167.192C125.036 167.192 123.468 166.915 122.017 166.36C120.588 165.784 119.34 164.984 118.273 163.96C117.228 162.915 116.407 161.709 115.809 160.344C115.233 158.957 114.945 157.443 114.945 155.8C114.945 154.157 115.233 152.653 115.809 151.288C116.407 149.901 117.228 148.696 118.273 147.672C119.34 146.627 120.588 145.827 122.017 145.272C123.447 144.696 125.015 144.408 126.721 144.408C128.407 144.408 129.964 144.696 131.393 145.272C132.823 145.827 134.06 146.616 135.105 147.64C136.172 148.664 136.993 149.869 137.569 151.256C138.167 152.643 138.465 154.157 138.465 155.8C138.465 157.443 138.167 158.957 137.569 160.344C136.993 161.731 136.172 162.936 135.105 163.96C134.06 164.984 132.823 165.784 131.393 166.36C129.964 166.915 128.407 167.192 126.721 167.192ZM126.721 165.08C128.065 165.08 129.303 164.856 130.433 164.408C131.585 163.939 132.577 163.288 133.409 162.456C134.263 161.603 134.924 160.621 135.393 159.512C135.863 158.381 136.097 157.144 136.097 155.8C136.097 154.456 135.863 153.229 135.393 152.12C134.924 150.989 134.263 150.008 133.409 149.176C132.577 148.323 131.585 147.672 130.433 147.224C129.303 146.755 128.065 146.52 126.721 146.52C125.377 146.52 124.129 146.755 122.977 147.224C121.825 147.672 120.823 148.323 119.969 149.176C119.137 150.008 118.476 150.989 117.985 152.12C117.516 153.229 117.281 154.456 117.281 155.8C117.281 157.123 117.516 158.349 117.985 159.48C118.476 160.611 119.137 161.603 119.969 162.456C120.823 163.288 121.825 163.939 122.977 164.408C124.129 164.856 125.377 165.08 126.721 165.08ZM143.773 167V144.6H152.157C154.056 144.6 155.688 144.909 157.053 145.528C158.418 146.125 159.464 147 160.189 148.152C160.936 149.283 161.309 150.659 161.309 152.28C161.309 153.859 160.936 155.224 160.189 156.376C159.464 157.507 158.418 158.381 157.053 159C155.688 159.597 154.056 159.896 152.157 159.896H145.085L146.141 158.808V167H143.773ZM159.069 167L153.309 158.872H155.869L161.661 167H159.069ZM146.141 159L145.085 157.88H152.093C154.333 157.88 156.029 157.389 157.181 156.408C158.354 155.427 158.941 154.051 158.941 152.28C158.941 150.488 158.354 149.101 157.181 148.12C156.029 147.139 154.333 146.648 152.093 146.648H145.085L146.141 145.528V159ZM168.946 161.432L168.85 158.552L182.418 144.6H185.138L175.25 154.968L173.906 156.408L168.946 161.432ZM166.898 167V144.6H169.266V167H166.898ZM182.994 167L173.33 155.864L174.93 154.136L185.81 167H182.994ZM198.628 167.192C196.942 167.192 195.374 166.915 193.924 166.36C192.494 165.784 191.246 164.984 190.18 163.96C189.134 162.915 188.313 161.709 187.716 160.344C187.14 158.957 186.852 157.443 186.852 155.8C186.852 154.157 187.14 152.653 187.716 151.288C188.313 149.901 189.134 148.696 190.18 147.672C191.246 146.627 192.494 145.827 193.924 145.272C195.353 144.696 196.921 144.408 198.628 144.408C200.313 144.408 201.87 144.696 203.3 145.272C204.729 145.827 205.966 146.616 207.012 147.64C208.078 148.664 208.9 149.869 209.476 151.256C210.073 152.643 210.372 154.157 210.372 155.8C210.372 157.443 210.073 158.957 209.476 160.344C208.9 161.731 208.078 162.936 207.012 163.96C205.966 164.984 204.729 165.784 203.3 166.36C201.87 166.915 200.313 167.192 198.628 167.192ZM198.628 165.08C199.972 165.08 201.209 164.856 202.34 164.408C203.492 163.939 204.484 163.288 205.316 162.456C206.169 161.603 206.83 160.621 207.3 159.512C207.769 158.381 208.004 157.144 208.004 155.8C208.004 154.456 207.769 153.229 207.3 152.12C206.83 150.989 206.169 150.008 205.316 149.176C204.484 148.323 203.492 147.672 202.34 147.224C201.209 146.755 199.972 146.52 198.628 146.52C197.284 146.52 196.036 146.755 194.884 147.224C193.732 147.672 192.729 148.323 191.876 149.176C191.044 150.008 190.382 150.989 189.891 152.12C189.422 153.229 189.188 154.456 189.188 155.8C189.188 157.123 189.422 158.349 189.891 159.48C190.382 160.611 191.044 161.603 191.876 162.456C192.729 163.288 193.732 163.939 194.884 164.408C196.036 164.856 197.284 165.08 198.628 165.08ZM224.703 167.192C221.845 167.192 219.594 166.371 217.951 164.728C216.309 163.085 215.487 160.653 215.487 157.432V144.6H217.855V157.336C217.855 159.981 218.453 161.933 219.647 163.192C220.842 164.451 222.527 165.08 224.703 165.08C226.901 165.08 228.597 164.451 229.791 163.192C230.986 161.933 231.583 159.981 231.583 157.336V144.6H233.887V157.432C233.887 160.653 233.066 163.085 231.423 164.728C229.802 166.371 227.562 167.192 224.703 167.192ZM244.938 167V146.648H237.066V144.6H255.178V146.648H247.306V167H244.938ZM264.793 167.192C263.129 167.192 261.529 166.925 259.993 166.392C258.478 165.837 257.305 165.133 256.473 164.28L257.401 162.456C258.19 163.224 259.246 163.875 260.569 164.408C261.913 164.92 263.321 165.176 264.793 165.176C266.201 165.176 267.342 165.005 268.217 164.664C269.113 164.301 269.763 163.821 270.169 163.224C270.595 162.627 270.809 161.965 270.809 161.24C270.809 160.365 270.553 159.661 270.041 159.128C269.55 158.595 268.899 158.179 268.089 157.88C267.278 157.56 266.382 157.283 265.401 157.048C264.419 156.813 263.438 156.568 262.457 156.312C261.475 156.035 260.569 155.672 259.737 155.224C258.926 154.776 258.265 154.189 257.753 153.464C257.262 152.717 257.017 151.747 257.017 150.552C257.017 149.443 257.305 148.429 257.881 147.512C258.478 146.573 259.385 145.827 260.601 145.272C261.817 144.696 263.374 144.408 265.273 144.408C266.531 144.408 267.779 144.589 269.017 144.952C270.254 145.293 271.321 145.773 272.217 146.392L271.417 148.28C270.457 147.64 269.433 147.171 268.345 146.872C267.278 146.573 266.243 146.424 265.241 146.424C263.897 146.424 262.787 146.605 261.913 146.968C261.038 147.331 260.387 147.821 259.961 148.44C259.555 149.037 259.353 149.72 259.353 150.488C259.353 151.363 259.598 152.067 260.089 152.6C260.601 153.133 261.262 153.549 262.073 153.848C262.905 154.147 263.811 154.413 264.793 154.648C265.774 154.883 266.745 155.139 267.705 155.416C268.686 155.693 269.582 156.056 270.393 156.504C271.225 156.931 271.886 157.507 272.377 158.232C272.889 158.957 273.145 159.907 273.145 161.08C273.145 162.168 272.846 163.181 272.249 164.12C271.651 165.037 270.734 165.784 269.497 166.36C268.281 166.915 266.713 167.192 264.793 167.192ZM278.673 167.16C278.204 167.16 277.799 166.989 277.457 166.648C277.137 166.307 276.977 165.891 276.977 165.4C276.977 164.888 277.137 164.472 277.457 164.152C277.799 163.832 278.204 163.672 278.673 163.672C279.143 163.672 279.537 163.832 279.857 164.152C280.199 164.472 280.369 164.888 280.369 165.4C280.369 165.891 280.199 166.307 279.857 166.648C279.537 166.989 279.143 167.16 278.673 167.16ZM9.824 206.192C8.16 206.192 6.56 205.925 5.024 205.392C3.50933 204.837 2.336 204.133 1.504 203.28L2.432 201.456C3.22133 202.224 4.27733 202.875 5.6 203.408C6.944 203.92 8.352 204.176 9.824 204.176C11.232 204.176 12.3733 204.005 13.248 203.664C14.144 203.301 14.7947 202.821 15.2 202.224C15.6267 201.627 15.84 200.965 15.84 200.24C15.84 199.365 15.584 198.661 15.072 198.128C14.5813 197.595 13.9307 197.179 13.12 196.88C12.3093 196.56 11.4133 196.283 10.432 196.048C9.45067 195.813 8.46933 195.568 7.488 195.312C6.50667 195.035 5.6 194.672 4.768 194.224C3.95733 193.776 3.296 193.189 2.784 192.464C2.29333 191.717 2.048 190.747 2.048 189.552C2.048 188.443 2.336 187.429 2.912 186.512C3.50933 185.573 4.416 184.827 5.632 184.272C6.848 183.696 8.40533 183.408 10.304 183.408C11.5627 183.408 12.8107 183.589 14.048 183.952C15.2853 184.293 16.352 184.773 17.248 185.392L16.448 187.28C15.488 186.64 14.464 186.171 13.376 185.872C12.3093 185.573 11.2747 185.424 10.272 185.424C8.928 185.424 7.81867 185.605 6.944 185.968C6.06933 186.331 5.41867 186.821 4.992 187.44C4.58667 188.037 4.384 188.72 4.384 189.488C4.384 190.363 4.62933 191.067 5.12 191.6C5.632 192.133 6.29333 192.549 7.104 192.848C7.936 193.147 8.84267 193.413 9.824 193.648C10.8053 193.883 11.776 194.139 12.736 194.416C13.7173 194.693 14.6133 195.056 15.424 195.504C16.256 195.931 16.9173 196.507 17.408 197.232C17.92 197.957 18.176 198.907 18.176 200.08C18.176 201.168 17.8773 202.181 17.28 203.12C16.6827 204.037 15.7653 204.784 14.528 205.36C13.312 205.915 11.744 206.192 9.824 206.192ZM27.375 206V185.648H19.503V183.6H37.615V185.648H29.743V206H27.375ZM36.689 206L46.929 183.6H49.265L59.505 206H57.009L47.601 184.976H48.561L39.153 206H36.689ZM40.721 200.016L41.425 198.096H54.449L55.153 200.016H40.721ZM67.242 206V197.68L67.786 199.152L58.282 183.6H60.81L69.162 197.264H67.818L76.17 183.6H78.538L69.034 199.152L69.578 197.68V206H67.242ZM100.378 206.192C98.6922 206.192 97.1242 205.915 95.6735 205.36C94.2442 204.784 92.9962 203.984 91.9295 202.96C90.8842 201.915 90.0628 200.709 89.4655 199.344C88.8895 197.957 88.6015 196.443 88.6015 194.8C88.6015 193.157 88.8895 191.653 89.4655 190.288C90.0628 188.901 90.8842 187.696 91.9295 186.672C92.9962 185.627 94.2442 184.827 95.6735 184.272C97.1028 183.696 98.6708 183.408 100.378 183.408C102.063 183.408 103.62 183.696 105.05 184.272C106.479 184.827 107.716 185.616 108.762 186.64C109.828 187.664 110.65 188.869 111.226 190.256C111.823 191.643 112.122 193.157 112.122 194.8C112.122 196.443 111.823 197.957 111.226 199.344C110.65 200.731 109.828 201.936 108.762 202.96C107.716 203.984 106.479 204.784 105.05 205.36C103.62 205.915 102.063 206.192 100.378 206.192ZM100.378 204.08C101.722 204.08 102.959 203.856 104.09 203.408C105.242 202.939 106.234 202.288 107.066 201.456C107.919 200.603 108.58 199.621 109.05 198.512C109.519 197.381 109.754 196.144 109.754 194.8C109.754 193.456 109.519 192.229 109.05 191.12C108.58 189.989 107.919 189.008 107.066 188.176C106.234 187.323 105.242 186.672 104.09 186.224C102.959 185.755 101.722 185.52 100.378 185.52C99.0335 185.52 97.7855 185.755 96.6335 186.224C95.4815 186.672 94.4788 187.323 93.6255 188.176C92.7935 189.008 92.1322 189.989 91.6415 191.12C91.1722 192.229 90.9375 193.456 90.9375 194.8C90.9375 196.123 91.1722 197.349 91.6415 198.48C92.1322 199.611 92.7935 200.603 93.6255 201.456C94.4788 202.288 95.4815 202.939 96.6335 203.408C97.7855 203.856 99.0335 204.08 100.378 204.08ZM117.429 206V183.6H119.381L134.837 203.056H133.813V183.6H136.149V206H134.197L118.773 186.544H119.797V206H117.429ZM156.188 206V185.648H148.316V183.6H166.428V185.648H158.556V206H156.188ZM170.211 206V183.6H178.595C180.493 183.6 182.125 183.909 183.491 184.528C184.856 185.125 185.901 186 186.627 187.152C187.373 188.283 187.747 189.659 187.747 191.28C187.747 192.859 187.373 194.224 186.627 195.376C185.901 196.507 184.856 197.381 183.491 198C182.125 198.597 180.493 198.896 178.595 198.896H171.523L172.579 197.808V206H170.211ZM185.507 206L179.747 197.872H182.307L188.099 206H185.507ZM172.579 198L171.523 196.88H178.531C180.771 196.88 182.467 196.389 183.619 195.408C184.792 194.427 185.378 193.051 185.378 191.28C185.378 189.488 184.792 188.101 183.619 187.12C182.467 186.139 180.771 185.648 178.531 185.648H171.523L172.579 184.528V198ZM189.752 206L199.992 183.6H202.328L212.568 206H210.072L200.664 184.976H201.624L192.216 206H189.752ZM193.784 200.016L194.488 198.096H207.512L208.216 200.016H193.784ZM225.689 206.192C224.003 206.192 222.446 205.915 221.017 205.36C219.587 204.784 218.35 203.984 217.305 202.96C216.259 201.936 215.438 200.731 214.841 199.344C214.265 197.957 213.977 196.443 213.977 194.8C213.977 193.157 214.265 191.643 214.841 190.256C215.438 188.869 216.259 187.664 217.305 186.64C218.371 185.616 219.619 184.827 221.049 184.272C222.478 183.696 224.035 183.408 225.721 183.408C227.342 183.408 228.867 183.685 230.297 184.24C231.726 184.773 232.931 185.584 233.913 186.672L232.409 188.176C231.491 187.237 230.478 186.565 229.369 186.16C228.259 185.733 227.065 185.52 225.785 185.52C224.441 185.52 223.193 185.755 222.041 186.224C220.889 186.672 219.886 187.323 219.033 188.176C218.179 189.008 217.507 189.989 217.016 191.12C216.547 192.229 216.312 193.456 216.312 194.8C216.312 196.144 216.547 197.381 217.016 198.512C217.507 199.621 218.179 200.603 219.033 201.456C219.886 202.288 220.889 202.939 222.041 203.408C223.193 203.856 224.441 204.08 225.785 204.08C227.065 204.08 228.259 203.867 229.369 203.44C230.478 203.013 231.491 202.331 232.409 201.392L233.913 202.896C232.931 203.984 231.726 204.805 230.297 205.36C228.867 205.915 227.331 206.192 225.689 206.192ZM241.009 200.432L240.913 197.552L254.481 183.6H257.201L247.313 193.968L245.969 195.408L241.009 200.432ZM238.961 206V183.6H241.329V206H238.961ZM255.057 206L245.393 194.864L246.993 193.136L257.873 206H255.057ZM261.455 206.16C260.985 206.16 260.58 205.989 260.239 205.648C259.919 205.307 259.759 204.891 259.759 204.4C259.759 203.888 259.919 203.472 260.239 203.152C260.58 202.832 260.985 202.672 261.455 202.672C261.924 202.672 262.319 202.832 262.639 203.152C262.98 203.472 263.151 203.888 263.151 204.4C263.151 204.891 262.98 205.307 262.639 205.648C262.319 205.989 261.924 206.16 261.455 206.16Z" fill="#E8E8E8"/>
<path d="M4.32 236.29H13.2V237.802H4.32V236.29ZM4.512 244.042H14.616V245.578H2.736V228.778H14.256V230.314H4.512V244.042ZM26.1392 245.578V242.794L26.0672 242.338V237.682C26.0672 236.61 25.7632 235.786 25.1552 235.21C24.5632 234.634 23.6752 234.346 22.4912 234.346C21.6752 234.346 20.8992 234.482 20.1632 234.754C19.4272 235.026 18.8032 235.386 18.2912 235.834L17.5232 234.562C18.1632 234.018 18.9312 233.602 19.8272 233.314C20.7232 233.01 21.6672 232.858 22.6592 232.858C24.2912 232.858 25.5472 233.266 26.4272 234.082C27.3232 234.882 27.7712 236.106 27.7712 237.754V245.578H26.1392ZM21.7952 245.698C20.8512 245.698 20.0272 245.546 19.3232 245.242C18.6352 244.922 18.1072 244.49 17.7392 243.946C17.3712 243.386 17.1872 242.746 17.1872 242.026C17.1872 241.37 17.3392 240.778 17.6432 240.25C17.9632 239.706 18.4752 239.274 19.1792 238.954C19.8992 238.618 20.8592 238.45 22.0592 238.45H26.4032V239.722H22.1072C20.8912 239.722 20.0432 239.938 19.5632 240.37C19.0992 240.802 18.8672 241.338 18.8672 241.978C18.8672 242.698 19.1472 243.274 19.7072 243.706C20.2672 244.138 21.0512 244.354 22.0592 244.354C23.0192 244.354 23.8432 244.138 24.5312 243.706C25.2352 243.258 25.7472 242.618 26.0672 241.786L26.4512 242.962C26.1312 243.794 25.5712 244.458 24.7712 244.954C23.9872 245.45 22.9952 245.698 21.7952 245.698ZM35.7834 245.698C34.7434 245.698 33.7594 245.554 32.8314 245.266C31.9034 244.962 31.1754 244.586 30.6474 244.138L31.4154 242.794C31.9274 243.178 32.5834 243.514 33.3834 243.802C34.1834 244.074 35.0234 244.21 35.9034 244.21C37.1034 244.21 37.9674 244.026 38.4954 243.658C39.0234 243.274 39.2874 242.77 39.2874 242.146C39.2874 241.682 39.1354 241.322 38.8314 241.066C38.5434 240.794 38.1594 240.594 37.6794 240.466C37.1994 240.322 36.6634 240.202 36.0714 240.106C35.4794 240.01 34.8874 239.898 34.2954 239.77C33.7194 239.642 33.1914 239.458 32.7114 239.218C32.2314 238.962 31.8394 238.618 31.5354 238.186C31.2474 237.754 31.1034 237.178 31.1034 236.458C31.1034 235.77 31.2954 235.154 31.6794 234.61C32.0634 234.066 32.6234 233.642 33.3594 233.338C34.1114 233.018 35.0234 232.858 36.0954 232.858C36.9114 232.858 37.7274 232.97 38.5434 233.194C39.3594 233.402 40.0314 233.682 40.5594 234.034L39.8154 235.402C39.2554 235.018 38.6554 234.746 38.0154 234.586C37.3754 234.41 36.7354 234.322 36.0954 234.322C34.9594 234.322 34.1194 234.522 33.5754 234.922C33.0474 235.306 32.7834 235.802 32.7834 236.41C32.7834 236.89 32.9274 237.266 33.2154 237.538C33.5194 237.81 33.9114 238.026 34.3914 238.186C34.8874 238.33 35.4234 238.45 35.9994 238.546C36.5914 238.642 37.1754 238.762 37.7514 238.906C38.3434 239.034 38.8794 239.218 39.3594 239.458C39.8554 239.682 40.2474 240.01 40.5354 240.442C40.8394 240.858 40.9914 241.41 40.9914 242.098C40.9914 242.834 40.7834 243.474 40.3674 244.018C39.9674 244.546 39.3754 244.962 38.5914 245.266C37.8234 245.554 36.8874 245.698 35.7834 245.698ZM44.1182 245.578V232.978H45.8222V245.578H44.1182ZM44.9822 230.194C44.6302 230.194 44.3342 230.074 44.0942 229.834C43.8542 229.594 43.7342 229.306 43.7342 228.97C43.7342 228.634 43.8542 228.354 44.0942 228.13C44.3342 227.89 44.6302 227.77 44.9822 227.77C45.3342 227.77 45.6302 227.882 45.8702 228.106C46.1102 228.33 46.2302 228.61 46.2302 228.946C46.2302 229.298 46.1102 229.594 45.8702 229.834C45.6462 230.074 45.3502 230.194 44.9822 230.194ZM50.5635 245.578V227.77H52.2675V245.578H50.5635ZM57.1048 250.354C56.5128 250.354 55.9448 250.258 55.4008 250.066C54.8728 249.874 54.4168 249.586 54.0328 249.202L54.8248 247.93C55.1448 248.234 55.4888 248.466 55.8568 248.626C56.2408 248.802 56.6648 248.89 57.1288 248.89C57.6888 248.89 58.1688 248.73 58.5688 248.41C58.9848 248.106 59.3768 247.562 59.7448 246.778L60.5608 244.93L60.7528 244.666L65.9368 232.978H67.6168L61.3048 247.09C60.9528 247.906 60.5608 248.554 60.1288 249.034C59.7128 249.514 59.2568 249.85 58.7608 250.042C58.2648 250.25 57.7128 250.354 57.1048 250.354ZM60.4648 245.938L54.6568 232.978H56.4328L61.5688 244.546L60.4648 245.938ZM80.2819 245.698C79.0979 245.698 78.1859 245.378 77.5459 244.738C76.9059 244.098 76.5859 243.194 76.5859 242.026V230.194H78.2899V241.93C78.2899 242.666 78.4739 243.234 78.8419 243.634C79.2259 244.034 79.7699 244.234 80.4739 244.234C81.2259 244.234 81.8499 244.018 82.3459 243.586L82.9459 244.81C82.6099 245.114 82.2019 245.338 81.7219 245.482C81.2579 245.626 80.7779 245.698 80.2819 245.698ZM74.3299 234.394V232.978H82.1299V234.394H74.3299ZM86.0479 245.578V232.978H87.6799V236.41L87.5119 235.81C87.8639 234.85 88.4559 234.122 89.2879 233.626C90.1199 233.114 91.1519 232.858 92.3839 232.858V234.514C92.3199 234.514 92.2559 234.514 92.1919 234.514C92.1279 234.498 92.0639 234.49 91.9999 234.49C90.6719 234.49 89.6319 234.898 88.8799 235.714C88.1279 236.514 87.7519 237.658 87.7519 239.146V245.578H86.0479ZM102.452 245.578V242.794L102.38 242.338V237.682C102.38 236.61 102.076 235.786 101.468 235.21C100.876 234.634 99.9877 234.346 98.8037 234.346C97.9877 234.346 97.2117 234.482 96.4757 234.754C95.7397 235.026 95.1157 235.386 94.6037 235.834L93.8357 234.562C94.4757 234.018 95.2437 233.602 96.1397 233.314C97.0357 233.01 97.9797 232.858 98.9717 232.858C100.604 232.858 101.86 233.266 102.74 234.082C103.636 234.882 104.084 236.106 104.084 237.754V245.578H102.452ZM98.1077 245.698C97.1637 245.698 96.3397 245.546 95.6357 245.242C94.9477 244.922 94.4197 244.49 94.0517 243.946C93.6837 243.386 93.4997 242.746 93.4997 242.026C93.4997 241.37 93.6517 240.778 93.9557 240.25C94.2757 239.706 94.7877 239.274 95.4917 238.954C96.2117 238.618 97.1717 238.45 98.3717 238.45H102.716V239.722H98.4197C97.2037 239.722 96.3557 239.938 95.8757 240.37C95.4117 240.802 95.1797 241.338 95.1797 241.978C95.1797 242.698 95.4597 243.274 96.0197 243.706C96.5797 244.138 97.3637 244.354 98.3717 244.354C99.3317 244.354 100.156 244.138 100.844 243.706C101.548 243.258 102.06 242.618 102.38 241.786L102.764 242.962C102.444 243.794 101.884 244.458 101.084 244.954C100.3 245.45 99.3077 245.698 98.1077 245.698ZM113.944 245.698C112.696 245.698 111.576 245.426 110.584 244.882C109.608 244.322 108.84 243.562 108.28 242.602C107.72 241.626 107.44 240.514 107.44 239.266C107.44 238.002 107.72 236.89 108.28 235.93C108.84 234.97 109.608 234.218 110.584 233.674C111.576 233.13 112.696 232.858 113.944 232.858C115.016 232.858 115.984 233.066 116.848 233.482C117.712 233.898 118.392 234.522 118.888 235.354L117.616 236.218C117.184 235.578 116.648 235.106 116.008 234.802C115.368 234.498 114.672 234.346 113.92 234.346C113.024 234.346 112.216 234.554 111.496 234.97C110.776 235.37 110.208 235.938 109.792 236.674C109.376 237.41 109.168 238.274 109.168 239.266C109.168 240.258 109.376 241.122 109.792 241.858C110.208 242.594 110.776 243.17 111.496 243.586C112.216 243.986 113.024 244.186 113.92 244.186C114.672 244.186 115.368 244.034 116.008 243.73C116.648 243.426 117.184 242.962 117.616 242.338L118.888 243.202C118.392 244.018 117.712 244.642 116.848 245.074C115.984 245.49 115.016 245.698 113.944 245.698ZM123.392 242.314L123.44 240.13L131.288 232.978H133.376L127.832 238.282L126.872 239.098L123.392 242.314ZM122.048 245.578V227.77H123.752V245.578H122.048ZM131.816 245.578L126.56 239.026L127.664 237.706L133.904 245.578H131.816ZM142.839 250.354C142.247 250.354 141.679 250.258 141.135 250.066C140.607 249.874 140.151 249.586 139.767 249.202L140.559 247.93C140.879 248.234 141.223 248.466 141.591 248.626C141.975 248.802 142.399 248.89 142.863 248.89C143.423 248.89 143.903 248.73 144.303 248.41C144.719 248.106 145.111 247.562 145.479 246.778L146.295 244.93L146.487 244.666L151.671 232.978H153.351L147.039 247.09C146.687 247.906 146.295 248.554 145.863 249.034C145.447 249.514 144.991 249.85 144.495 250.042C143.999 250.25 143.447 250.354 142.839 250.354ZM146.199 245.938L140.391 232.978H142.167L147.303 244.546L146.199 245.938ZM160.535 245.698C159.319 245.698 158.223 245.426 157.247 244.882C156.287 244.322 155.527 243.562 154.967 242.602C154.407 241.626 154.127 240.514 154.127 239.266C154.127 238.002 154.407 236.89 154.967 235.93C155.527 234.97 156.287 234.218 157.247 233.674C158.207 233.13 159.303 232.858 160.535 232.858C161.783 232.858 162.887 233.13 163.847 233.674C164.823 234.218 165.583 234.97 166.127 235.93C166.687 236.89 166.967 238.002 166.967 239.266C166.967 240.514 166.687 241.626 166.127 242.602C165.583 243.562 164.823 244.322 163.847 244.882C162.871 245.426 161.767 245.698 160.535 245.698ZM160.535 244.186C161.447 244.186 162.255 243.986 162.959 243.586C163.663 243.17 164.215 242.594 164.615 241.858C165.031 241.106 165.239 240.242 165.239 239.266C165.239 238.274 165.031 237.41 164.615 236.674C164.215 235.938 163.663 235.37 162.959 234.97C162.255 234.554 161.455 234.346 160.559 234.346C159.663 234.346 158.863 234.554 158.159 234.97C157.455 235.37 156.895 235.938 156.479 236.674C156.063 237.41 155.855 238.274 155.855 239.266C155.855 240.242 156.063 241.106 156.479 241.858C156.895 242.594 157.455 243.17 158.159 243.586C158.863 243.986 159.655 244.186 160.535 244.186ZM175.654 245.698C174.582 245.698 173.646 245.498 172.846 245.098C172.046 244.698 171.422 244.098 170.974 243.298C170.542 242.498 170.326 241.498 170.326 240.298V232.978H172.03V240.106C172.03 241.45 172.358 242.466 173.014 243.154C173.686 243.826 174.622 244.162 175.822 244.162C176.702 244.162 177.462 243.986 178.102 243.634C178.758 243.266 179.254 242.738 179.59 242.05C179.942 241.362 180.118 240.538 180.118 239.578V232.978H181.822V245.578H180.19V242.122L180.454 242.746C180.054 243.674 179.43 244.402 178.582 244.93C177.75 245.442 176.774 245.698 175.654 245.698ZM186.571 245.578V232.978H188.203V236.41L188.035 235.81C188.387 234.85 188.979 234.122 189.811 233.626C190.643 233.114 191.675 232.858 192.907 232.858V234.514C192.843 234.514 192.779 234.514 192.715 234.514C192.651 234.498 192.587 234.49 192.523 234.49C191.195 234.49 190.155 234.898 189.403 235.714C188.651 236.514 188.275 237.658 188.275 239.146V245.578H186.571ZM206.661 245.578L200.997 228.778H202.821L208.125 244.594H207.213L212.685 228.778H214.317L219.717 244.594H218.853L224.205 228.778H225.909L220.245 245.578H218.373L213.213 230.578H213.693L208.509 245.578H206.661ZM232.981 245.698C231.765 245.698 230.669 245.426 229.693 244.882C228.733 244.322 227.973 243.562 227.413 242.602C226.853 241.626 226.573 240.514 226.573 239.266C226.573 238.002 226.853 236.89 227.413 235.93C227.973 234.97 228.733 234.218 229.693 233.674C230.653 233.13 231.749 232.858 232.981 232.858C234.229 232.858 235.333 233.13 236.293 233.674C237.269 234.218 238.029 234.97 238.573 235.93C239.133 236.89 239.413 238.002 239.413 239.266C239.413 240.514 239.133 241.626 238.573 242.602C238.029 243.562 237.269 244.322 236.293 244.882C235.317 245.426 234.213 245.698 232.981 245.698ZM232.981 244.186C233.893 244.186 234.701 243.986 235.405 243.586C236.109 243.17 236.661 242.594 237.061 241.858C237.477 241.106 237.685 240.242 237.685 239.266C237.685 238.274 237.477 237.41 237.061 236.674C236.661 235.938 236.109 235.37 235.405 234.97C234.701 234.554 233.901 234.346 233.005 234.346C232.109 234.346 231.309 234.554 230.605 234.97C229.901 235.37 229.341 235.938 228.925 236.674C228.509 237.41 228.301 238.274 228.301 239.266C228.301 240.242 228.509 241.106 228.925 241.858C229.341 242.594 229.901 243.17 230.605 243.586C231.309 243.986 232.101 244.186 232.981 244.186ZM242.892 245.578V232.978H244.524V236.41L244.356 235.81C244.708 234.85 245.3 234.122 246.132 233.626C246.964 233.114 247.996 232.858 249.228 232.858V234.514C249.164 234.514 249.1 234.514 249.036 234.514C248.972 234.498 248.908 234.49 248.844 234.49C247.516 234.49 246.476 234.898 245.724 235.714C244.972 236.514 244.596 237.658 244.596 239.146V245.578H242.892ZM253.681 242.314L253.729 240.13L261.577 232.978H263.665L258.121 238.282L257.161 239.098L253.681 242.314ZM252.337 245.578V227.77H254.041V245.578H252.337ZM262.105 245.578L256.849 239.026L257.953 237.706L264.193 245.578H262.105ZM271.395 245.698C270.179 245.698 269.083 245.426 268.107 244.882C267.147 244.322 266.387 243.562 265.827 242.602C265.267 241.626 264.987 240.514 264.987 239.266C264.987 238.002 265.267 236.89 265.827 235.93C266.387 234.97 267.147 234.218 268.107 233.674C269.067 233.13 270.163 232.858 271.395 232.858C272.643 232.858 273.747 233.13 274.707 233.674C275.683 234.218 276.443 234.97 276.987 235.93C277.547 236.89 277.827 238.002 277.827 239.266C277.827 240.514 277.547 241.626 276.987 242.602C276.443 243.562 275.683 244.322 274.707 244.882C273.731 245.426 272.627 245.698 271.395 245.698ZM271.395 244.186C272.307 244.186 273.115 243.986 273.819 243.586C274.523 243.17 275.075 242.594 275.475 241.858C275.891 241.106 276.099 240.242 276.099 239.266C276.099 238.274 275.891 237.41 275.475 236.674C275.075 235.938 274.523 235.37 273.819 234.97C273.115 234.554 272.315 234.346 271.419 234.346C270.523 234.346 269.723 234.554 269.019 234.97C268.315 235.37 267.755 235.938 267.339 236.674C266.923 237.41 266.715 238.274 266.715 239.266C266.715 240.242 266.923 241.106 267.339 241.858C267.755 242.594 268.315 243.17 269.019 243.586C269.723 243.986 270.515 244.186 271.395 244.186ZM286.514 245.698C285.442 245.698 284.506 245.498 283.706 245.098C282.906 244.698 282.282 244.098 281.834 243.298C281.402 242.498 281.186 241.498 281.186 240.298V232.978H282.89V240.106C282.89 241.45 283.218 242.466 283.874 243.154C284.546 243.826 285.482 244.162 286.682 244.162C287.562 244.162 288.322 243.986 288.962 243.634C289.618 243.266 290.114 242.738 290.45 242.05C290.802 241.362 290.978 240.538 290.978 239.578V232.978H292.682V245.578H291.05V242.122L291.314 242.746C290.914 243.674 290.29 244.402 289.442 244.93C288.61 245.442 287.634 245.698 286.514 245.698ZM301.415 245.698C300.231 245.698 299.319 245.378 298.679 244.738C298.039 244.098 297.719 243.194 297.719 242.026V230.194H299.423V241.93C299.423 242.666 299.607 243.234 299.975 243.634C300.359 244.034 300.903 244.234 301.607 244.234C302.359 244.234 302.983 244.018 303.479 243.586L304.079 244.81C303.743 245.114 303.335 245.338 302.855 245.482C302.391 245.626 301.911 245.698 301.415 245.698ZM295.463 234.394V232.978H303.263V234.394H295.463ZM310.565 245.698C309.525 245.698 308.541 245.554 307.613 245.266C306.685 244.962 305.957 244.586 305.429 244.138L306.197 242.794C306.709 243.178 307.365 243.514 308.165 243.802C308.965 244.074 309.805 244.21 310.685 244.21C311.885 244.21 312.749 244.026 313.277 243.658C313.805 243.274 314.069 242.77 314.069 242.146C314.069 241.682 313.917 241.322 313.613 241.066C313.325 240.794 312.941 240.594 312.461 240.466C311.981 240.322 311.445 240.202 310.853 240.106C310.261 240.01 309.669 239.898 309.077 239.77C308.501 239.642 307.973 239.458 307.493 239.218C307.013 238.962 306.621 238.618 306.317 238.186C306.029 237.754 305.885 237.178 305.885 236.458C305.885 235.77 306.077 235.154 306.461 234.61C306.845 234.066 307.405 233.642 308.141 233.338C308.893 233.018 309.805 232.858 310.877 232.858C311.693 232.858 312.509 232.97 313.325 233.194C314.141 233.402 314.813 233.682 315.341 234.034L314.597 235.402C314.037 235.018 313.437 234.746 312.797 234.586C312.157 234.41 311.517 234.322 310.877 234.322C309.741 234.322 308.901 234.522 308.357 234.922C307.829 235.306 307.565 235.802 307.565 236.41C307.565 236.89 307.709 237.266 307.997 237.538C308.301 237.81 308.693 238.026 309.173 238.186C309.669 238.33 310.205 238.45 310.781 238.546C311.373 238.642 311.957 238.762 312.533 238.906C313.125 239.034 313.661 239.218 314.141 239.458C314.637 239.682 315.029 240.01 315.317 240.442C315.621 240.858 315.773 241.41 315.773 242.098C315.773 242.834 315.565 243.474 315.149 244.018C314.749 244.546 314.157 244.962 313.373 245.266C312.605 245.554 311.669 245.698 310.565 245.698ZM317.867 249.082L318.923 244.642L319.115 245.674C318.747 245.674 318.435 245.554 318.179 245.314C317.939 245.074 317.819 244.762 317.819 244.378C317.819 243.994 317.939 243.682 318.179 243.442C318.435 243.202 318.739 243.082 319.091 243.082C319.459 243.082 319.755 243.21 319.979 243.466C320.219 243.722 320.339 244.026 320.339 244.378C320.339 244.506 320.331 244.634 320.315 244.762C320.299 244.89 320.267 245.034 320.219 245.194C320.171 245.354 320.107 245.546 320.027 245.77L319.019 249.082H317.867ZM333.651 245.698C332.611 245.698 331.627 245.554 330.699 245.266C329.771 244.962 329.043 244.586 328.515 244.138L329.283 242.794C329.795 243.178 330.451 243.514 331.251 243.802C332.051 244.074 332.891 244.21 333.771 244.21C334.971 244.21 335.835 244.026 336.363 243.658C336.891 243.274 337.155 242.77 337.155 242.146C337.155 241.682 337.003 241.322 336.699 241.066C336.411 240.794 336.027 240.594 335.547 240.466C335.067 240.322 334.531 240.202 333.939 240.106C333.347 240.01 332.755 239.898 332.163 239.77C331.587 239.642 331.059 239.458 330.579 239.218C330.099 238.962 329.707 238.618 329.403 238.186C329.115 237.754 328.971 237.178 328.971 236.458C328.971 235.77 329.163 235.154 329.547 234.61C329.931 234.066 330.491 233.642 331.227 233.338C331.979 233.018 332.891 232.858 333.963 232.858C334.779 232.858 335.595 232.97 336.411 233.194C337.227 233.402 337.899 233.682 338.427 234.034L337.683 235.402C337.123 235.018 336.523 234.746 335.883 234.586C335.243 234.41 334.603 234.322 333.963 234.322C332.827 234.322 331.987 234.522 331.443 234.922C330.915 235.306 330.651 235.802 330.651 236.41C330.651 236.89 330.795 237.266 331.083 237.538C331.387 237.81 331.779 238.026 332.259 238.186C332.755 238.33 333.291 238.45 333.867 238.546C334.459 238.642 335.043 238.762 335.619 238.906C336.211 239.034 336.747 239.218 337.227 239.458C337.723 239.682 338.115 240.01 338.403 240.442C338.707 240.858 338.859 241.41 338.859 242.098C338.859 242.834 338.651 243.474 338.235 244.018C337.835 244.546 337.243 244.962 336.459 245.266C335.691 245.554 334.755 245.698 333.651 245.698ZM347.337 245.698C346.025 245.698 344.873 245.426 343.881 244.882C342.889 244.322 342.113 243.562 341.553 242.602C340.993 241.626 340.713 240.514 340.713 239.266C340.713 238.018 340.977 236.914 341.505 235.954C342.049 234.994 342.785 234.242 343.713 233.698C344.657 233.138 345.713 232.858 346.881 232.858C348.065 232.858 349.113 233.13 350.025 233.674C350.953 234.202 351.681 234.954 352.209 235.93C352.737 236.89 353.001 238.002 353.001 239.266C353.001 239.346 352.993 239.434 352.977 239.53C352.977 239.61 352.977 239.698 352.977 239.794H342.009V238.522H352.065L351.393 239.026C351.393 238.114 351.193 237.306 350.793 236.602C350.409 235.882 349.881 235.322 349.209 234.922C348.537 234.522 347.761 234.322 346.881 234.322C346.017 234.322 345.241 234.522 344.553 234.922C343.865 235.322 343.329 235.882 342.945 236.602C342.561 237.322 342.369 238.146 342.369 239.074V239.338C342.369 240.298 342.577 241.146 342.993 241.882C343.425 242.602 344.017 243.17 344.769 243.586C345.537 243.986 346.409 244.186 347.385 244.186C348.153 244.186 348.865 244.05 349.521 243.778C350.193 243.506 350.769 243.09 351.249 242.53L352.209 243.634C351.649 244.306 350.945 244.818 350.097 245.17C349.265 245.522 348.345 245.698 347.337 245.698ZM360.454 245.698C359.27 245.698 358.358 245.378 357.718 244.738C357.078 244.098 356.758 243.194 356.758 242.026V230.194H358.462V241.93C358.462 242.666 358.646 243.234 359.014 243.634C359.398 244.034 359.942 244.234 360.646 244.234C361.398 244.234 362.022 244.018 362.518 243.586L363.118 244.81C362.782 245.114 362.374 245.338 361.894 245.482C361.43 245.626 360.95 245.698 360.454 245.698ZM354.502 234.394V232.978H362.302V234.394H354.502ZM6 274.578V259.314H0.096V257.778H13.68V259.314H7.776V274.578H6ZM15.8291 274.578V261.978H17.4611V265.41L17.2931 264.81C17.6451 263.85 18.2371 263.122 19.0691 262.626C19.9011 262.114 20.9331 261.858 22.1651 261.858V263.514C22.1011 263.514 22.0371 263.514 21.9731 263.514C21.9091 263.498 21.8451 263.49 21.7811 263.49C20.4531 263.49 19.4131 263.898 18.6611 264.714C17.9091 265.514 17.5331 266.658 17.5331 268.146V274.578H15.8291ZM32.2329 274.578V271.794L32.1609 271.338V266.682C32.1609 265.61 31.8569 264.786 31.2489 264.21C30.6569 263.634 29.7689 263.346 28.5849 263.346C27.7689 263.346 26.9929 263.482 26.2569 263.754C25.5209 264.026 24.8969 264.386 24.3849 264.834L23.6169 263.562C24.2569 263.018 25.0249 262.602 25.9209 262.314C26.8169 262.01 27.7609 261.858 28.7529 261.858C30.3849 261.858 31.6409 262.266 32.5209 263.082C33.4169 263.882 33.8649 265.106 33.8649 266.754V274.578H32.2329ZM27.8889 274.698C26.9449 274.698 26.1209 274.546 25.4169 274.242C24.7289 273.922 24.2009 273.49 23.8329 272.946C23.4649 272.386 23.2809 271.746 23.2809 271.026C23.2809 270.37 23.4329 269.778 23.7369 269.25C24.0569 268.706 24.5689 268.274 25.2729 267.954C25.9929 267.618 26.9529 267.45 28.1529 267.45H32.4969V268.722H28.2009C26.9849 268.722 26.1369 268.938 25.6569 269.37C25.1929 269.802 24.9609 270.338 24.9609 270.978C24.9609 271.698 25.2409 272.274 25.8009 272.706C26.3609 273.138 27.1449 273.354 28.1529 273.354C29.1129 273.354 29.9369 273.138 30.6249 272.706C31.3289 272.258 31.8409 271.618 32.1609 270.786L32.5449 271.962C32.2249 272.794 31.6649 273.458 30.8649 273.954C30.0809 274.45 29.0889 274.698 27.8889 274.698ZM38.4932 274.578V261.978H40.1972V274.578H38.4932ZM39.3572 259.194C39.0052 259.194 38.7092 259.074 38.4692 258.834C38.2292 258.594 38.1092 258.306 38.1092 257.97C38.1092 257.634 38.2292 257.354 38.4692 257.13C38.7092 256.89 39.0052 256.77 39.3572 256.77C39.7092 256.77 40.0052 256.882 40.2452 257.106C40.4852 257.33 40.6052 257.61 40.6052 257.946C40.6052 258.298 40.4852 258.594 40.2452 258.834C40.0212 259.074 39.7252 259.194 39.3572 259.194ZM51.3705 261.858C52.3945 261.858 53.2905 262.058 54.0585 262.458C54.8425 262.842 55.4505 263.434 55.8825 264.234C56.3305 265.034 56.5545 266.042 56.5545 267.258V274.578H54.8505V267.426C54.8505 266.098 54.5145 265.098 53.8425 264.426C53.1865 263.738 52.2585 263.394 51.0585 263.394C50.1625 263.394 49.3785 263.578 48.7065 263.946C48.0505 264.298 47.5385 264.818 47.1705 265.506C46.8185 266.178 46.6425 266.994 46.6425 267.954V274.578H44.9385V261.978H46.5705V265.434L46.3065 264.786C46.7065 263.874 47.3465 263.162 48.2265 262.65C49.1065 262.122 50.1545 261.858 51.3705 261.858ZM61.1573 274.578V261.978H62.8613V274.578H61.1573ZM62.0213 259.194C61.6693 259.194 61.3733 259.074 61.1333 258.834C60.8933 258.594 60.7733 258.306 60.7733 257.97C60.7733 257.634 60.8933 257.354 61.1333 257.13C61.3733 256.89 61.6693 256.77 62.0213 256.77C62.3733 256.77 62.6693 256.882 62.9093 257.106C63.1493 257.33 63.2693 257.61 63.2693 257.946C63.2693 258.298 63.1493 258.594 62.9093 258.834C62.6853 259.074 62.3893 259.194 62.0213 259.194ZM74.0346 261.858C75.0586 261.858 75.9546 262.058 76.7226 262.458C77.5066 262.842 78.1146 263.434 78.5466 264.234C78.9946 265.034 79.2186 266.042 79.2186 267.258V274.578H77.5146V267.426C77.5146 266.098 77.1786 265.098 76.5066 264.426C75.8506 263.738 74.9226 263.394 73.7226 263.394C72.8266 263.394 72.0426 263.578 71.3706 263.946C70.7146 264.298 70.2026 264.818 69.8346 265.506C69.4826 266.178 69.3066 266.994 69.3066 267.954V274.578H67.6026V261.978H69.2346V265.434L68.9706 264.786C69.3706 263.874 70.0106 263.162 70.8906 262.65C71.7706 262.122 72.8186 261.858 74.0346 261.858ZM89.1973 279.354C88.0453 279.354 86.9413 279.186 85.8853 278.85C84.8293 278.514 83.9733 278.034 83.3173 277.41L84.1813 276.114C84.7733 276.642 85.5013 277.058 86.3653 277.362C87.2453 277.682 88.1733 277.842 89.1493 277.842C90.7493 277.842 91.9253 277.466 92.6773 276.714C93.4293 275.978 93.8053 274.826 93.8053 273.258V270.114L94.0453 267.954L93.8773 265.794V261.978H95.5093V273.042C95.5093 275.218 94.9733 276.81 93.9013 277.818C92.8453 278.842 91.2773 279.354 89.1973 279.354ZM88.8853 274.098C87.6853 274.098 86.6053 273.842 85.6453 273.33C84.6853 272.802 83.9253 272.074 83.3653 271.146C82.8213 270.218 82.5493 269.154 82.5493 267.954C82.5493 266.754 82.8213 265.698 83.3653 264.786C83.9253 263.858 84.6853 263.138 85.6453 262.626C86.6053 262.114 87.6853 261.858 88.8853 261.858C90.0053 261.858 91.0133 262.09 91.9093 262.554C92.8053 263.018 93.5173 263.706 94.0453 264.618C94.5733 265.53 94.8373 266.642 94.8373 267.954C94.8373 269.266 94.5733 270.378 94.0453 271.29C93.5173 272.202 92.8053 272.898 91.9093 273.378C91.0133 273.858 90.0053 274.098 88.8853 274.098ZM89.0533 272.586C89.9813 272.586 90.8053 272.394 91.5253 272.01C92.2453 271.61 92.8133 271.066 93.2293 270.378C93.6453 269.674 93.8533 268.866 93.8533 267.954C93.8533 267.042 93.6453 266.242 93.2293 265.554C92.8133 264.866 92.2453 264.33 91.5253 263.946C90.8053 263.546 89.9813 263.346 89.0533 263.346C88.1413 263.346 87.3173 263.546 86.5813 263.946C85.8613 264.33 85.2933 264.866 84.8773 265.554C84.4773 266.242 84.2773 267.042 84.2773 267.954C84.2773 268.866 84.4773 269.674 84.8773 270.378C85.2933 271.066 85.8613 271.61 86.5813 272.01C87.3173 272.394 88.1413 272.586 89.0533 272.586ZM106.892 274.578V257.778H113.18C114.604 257.778 115.828 258.01 116.852 258.474C117.876 258.922 118.66 259.578 119.204 260.442C119.764 261.29 120.044 262.322 120.044 263.538C120.044 264.722 119.764 265.746 119.204 266.61C118.66 267.458 117.876 268.114 116.852 268.578C115.828 269.042 114.604 269.274 113.18 269.274H107.876L108.668 268.434V274.578H106.892ZM108.668 268.578L107.876 267.714H113.132C114.812 267.714 116.084 267.354 116.948 266.634C117.828 265.898 118.268 264.866 118.268 263.538C118.268 262.194 117.828 261.154 116.948 260.418C116.084 259.682 114.812 259.314 113.132 259.314H107.876L108.668 258.474V268.578ZM123.759 274.578V256.77H125.463V274.578H123.759ZM138.1 274.578V271.794L138.028 271.338V266.682C138.028 265.61 137.724 264.786 137.116 264.21C136.524 263.634 135.636 263.346 134.452 263.346C133.636 263.346 132.86 263.482 132.124 263.754C131.388 264.026 130.764 264.386 130.252 264.834L129.484 263.562C130.124 263.018 130.892 262.602 131.788 262.314C132.684 262.01 133.628 261.858 134.62 261.858C136.252 261.858 137.508 262.266 138.388 263.082C139.284 263.882 139.732 265.106 139.732 266.754V274.578H138.1ZM133.756 274.698C132.812 274.698 131.988 274.546 131.284 274.242C130.596 273.922 130.068 273.49 129.7 272.946C129.332 272.386 129.148 271.746 129.148 271.026C129.148 270.37 129.3 269.778 129.604 269.25C129.924 268.706 130.436 268.274 131.14 267.954C131.86 267.618 132.82 267.45 134.02 267.45H138.364V268.722H134.068C132.852 268.722 132.004 268.938 131.524 269.37C131.06 269.802 130.828 270.338 130.828 270.978C130.828 271.698 131.108 272.274 131.668 272.706C132.228 273.138 133.012 273.354 134.02 273.354C134.98 273.354 135.804 273.138 136.492 272.706C137.196 272.258 137.708 271.618 138.028 270.786L138.412 271.962C138.092 272.794 137.532 273.458 136.732 273.954C135.948 274.45 134.956 274.698 133.756 274.698ZM150.792 261.858C151.816 261.858 152.712 262.058 153.48 262.458C154.264 262.842 154.872 263.434 155.304 264.234C155.752 265.034 155.976 266.042 155.976 267.258V274.578H154.272V267.426C154.272 266.098 153.936 265.098 153.264 264.426C152.608 263.738 151.68 263.394 150.48 263.394C149.584 263.394 148.8 263.578 148.128 263.946C147.472 264.298 146.96 264.818 146.592 265.506C146.24 266.178 146.064 266.994 146.064 267.954V274.578H144.36V261.978H145.992V265.434L145.728 264.786C146.128 263.874 146.768 263.162 147.648 262.65C148.528 262.122 149.576 261.858 150.792 261.858ZM163.963 274.698C162.923 274.698 161.939 274.554 161.011 274.266C160.083 273.962 159.355 273.586 158.827 273.138L159.595 271.794C160.107 272.178 160.763 272.514 161.563 272.802C162.363 273.074 163.203 273.21 164.083 273.21C165.283 273.21 166.147 273.026 166.675 272.658C167.203 272.274 167.467 271.77 167.467 271.146C167.467 270.682 167.315 270.322 167.011 270.066C166.723 269.794 166.339 269.594 165.859 269.466C165.379 269.322 164.843 269.202 164.251 269.106C163.659 269.01 163.067 268.898 162.475 268.77C161.899 268.642 161.371 268.458 160.891 268.218C160.411 267.962 160.019 267.618 159.715 267.186C159.427 266.754 159.283 266.178 159.283 265.458C159.283 264.77 159.475 264.154 159.859 263.61C160.243 263.066 160.803 262.642 161.539 262.338C162.291 262.018 163.203 261.858 164.275 261.858C165.091 261.858 165.907 261.97 166.723 262.194C167.539 262.402 168.211 262.682 168.739 263.034L167.995 264.402C167.435 264.018 166.835 263.746 166.195 263.586C165.555 263.41 164.915 263.322 164.275 263.322C163.139 263.322 162.299 263.522 161.755 263.922C161.227 264.306 160.963 264.802 160.963 265.41C160.963 265.89 161.107 266.266 161.395 266.538C161.699 266.81 162.091 267.026 162.571 267.186C163.067 267.33 163.603 267.45 164.179 267.546C164.771 267.642 165.355 267.762 165.931 267.906C166.523 268.034 167.059 268.218 167.539 268.458C168.035 268.682 168.427 269.01 168.715 269.442C169.019 269.858 169.171 270.41 169.171 271.098C169.171 271.834 168.963 272.474 168.547 273.018C168.147 273.546 167.555 273.962 166.771 274.266C166.003 274.554 165.067 274.698 163.963 274.698ZM171.266 278.082L172.322 273.642L172.514 274.674C172.146 274.674 171.834 274.554 171.578 274.314C171.338 274.074 171.218 273.762 171.218 273.378C171.218 272.994 171.338 272.682 171.578 272.442C171.834 272.202 172.138 272.082 172.49 272.082C172.858 272.082 173.154 272.21 173.378 272.466C173.618 272.722 173.738 273.026 173.738 273.378C173.738 273.506 173.73 273.634 173.714 273.762C173.698 273.89 173.666 274.034 173.618 274.194C173.57 274.354 173.506 274.546 173.426 274.77L172.418 278.082H171.266ZM191.561 274.578V271.794L191.489 271.338V266.682C191.489 265.61 191.185 264.786 190.577 264.21C189.985 263.634 189.097 263.346 187.913 263.346C187.097 263.346 186.321 263.482 185.585 263.754C184.849 264.026 184.225 264.386 183.713 264.834L182.945 263.562C183.585 263.018 184.353 262.602 185.249 262.314C186.145 262.01 187.089 261.858 188.081 261.858C189.713 261.858 190.969 262.266 191.849 263.082C192.745 263.882 193.193 265.106 193.193 266.754V274.578H191.561ZM187.217 274.698C186.273 274.698 185.449 274.546 184.745 274.242C184.057 273.922 183.529 273.49 183.161 272.946C182.793 272.386 182.609 271.746 182.609 271.026C182.609 270.37 182.761 269.778 183.065 269.25C183.385 268.706 183.897 268.274 184.601 267.954C185.321 267.618 186.281 267.45 187.481 267.45H191.825V268.722H187.529C186.313 268.722 185.465 268.938 184.985 269.37C184.521 269.802 184.289 270.338 184.289 270.978C184.289 271.698 184.569 272.274 185.129 272.706C185.689 273.138 186.473 273.354 187.481 273.354C188.441 273.354 189.265 273.138 189.953 272.706C190.657 272.258 191.169 271.618 191.489 270.786L191.873 271.962C191.553 272.794 190.993 273.458 190.193 273.954C189.409 274.45 188.417 274.698 187.217 274.698ZM204.253 261.858C205.277 261.858 206.173 262.058 206.941 262.458C207.725 262.842 208.333 263.434 208.765 264.234C209.213 265.034 209.437 266.042 209.437 267.258V274.578H207.733V267.426C207.733 266.098 207.397 265.098 206.725 264.426C206.069 263.738 205.141 263.394 203.941 263.394C203.045 263.394 202.261 263.578 201.589 263.946C200.933 264.298 200.421 264.818 200.053 265.506C199.701 266.178 199.525 266.994 199.525 267.954V274.578H197.821V261.978H199.453V265.434L199.189 264.786C199.589 263.874 200.229 263.162 201.109 262.65C201.989 262.122 203.037 261.858 204.253 261.858ZM219.056 274.698C217.856 274.698 216.776 274.426 215.816 273.882C214.872 273.338 214.128 272.586 213.584 271.626C213.04 270.65 212.768 269.53 212.768 268.266C212.768 266.986 213.04 265.866 213.584 264.906C214.128 263.946 214.872 263.202 215.816 262.674C216.776 262.13 217.856 261.858 219.056 261.858C220.16 261.858 221.144 262.106 222.008 262.602C222.888 263.098 223.584 263.826 224.096 264.786C224.624 265.73 224.888 266.89 224.888 268.266C224.888 269.626 224.632 270.786 224.12 271.746C223.608 272.706 222.912 273.442 222.032 273.954C221.168 274.45 220.176 274.698 219.056 274.698ZM219.176 273.186C220.072 273.186 220.872 272.986 221.576 272.586C222.296 272.17 222.856 271.594 223.256 270.858C223.672 270.106 223.88 269.242 223.88 268.266C223.88 267.274 223.672 266.41 223.256 265.674C222.856 264.938 222.296 264.37 221.576 263.97C220.872 263.554 220.072 263.346 219.176 263.346C218.296 263.346 217.504 263.554 216.8 263.97C216.096 264.37 215.536 264.938 215.12 265.674C214.704 266.41 214.496 267.274 214.496 268.266C214.496 269.242 214.704 270.106 215.12 270.858C215.536 271.594 216.096 272.17 216.8 272.586C217.504 272.986 218.296 273.186 219.176 273.186ZM223.928 274.578V270.786L224.096 268.242L223.856 265.698V256.77H225.56V274.578H223.928ZM241.603 274.698C240.403 274.698 239.323 274.426 238.363 273.882C237.419 273.338 236.675 272.586 236.131 271.626C235.587 270.65 235.315 269.53 235.315 268.266C235.315 266.986 235.587 265.866 236.131 264.906C236.675 263.946 237.419 263.202 238.363 262.674C239.323 262.13 240.403 261.858 241.603 261.858C242.707 261.858 243.691 262.106 244.555 262.602C245.435 263.098 246.131 263.826 246.643 264.786C247.171 265.73 247.435 266.89 247.435 268.266C247.435 269.626 247.179 270.786 246.667 271.746C246.155 272.706 245.459 273.442 244.579 273.954C243.715 274.45 242.723 274.698 241.603 274.698ZM241.723 273.186C242.619 273.186 243.419 272.986 244.123 272.586C244.843 272.17 245.403 271.594 245.803 270.858C246.219 270.106 246.427 269.242 246.427 268.266C246.427 267.274 246.219 266.41 245.803 265.674C245.403 264.938 244.843 264.37 244.123 263.97C243.419 263.554 242.619 263.346 241.723 263.346C240.843 263.346 240.051 263.554 239.347 263.97C238.643 264.37 238.083 264.938 237.667 265.674C237.251 266.41 237.043 267.274 237.043 268.266C237.043 269.242 237.251 270.106 237.667 270.858C238.083 271.594 238.643 272.17 239.347 272.586C240.051 272.986 240.843 273.186 241.723 273.186ZM246.475 274.578V270.786L246.643 268.242L246.403 265.698V256.77H248.107V274.578H246.475ZM252.853 274.578V261.978H254.557V274.578H252.853ZM253.717 259.194C253.365 259.194 253.069 259.074 252.829 258.834C252.589 258.594 252.469 258.306 252.469 257.97C252.469 257.634 252.589 257.354 252.829 257.13C253.069 256.89 253.365 256.77 253.717 256.77C254.069 256.77 254.365 256.882 254.605 257.106C254.845 257.33 254.965 257.61 254.965 257.946C254.965 258.298 254.845 258.594 254.605 258.834C254.381 259.074 254.085 259.194 253.717 259.194ZM262.682 274.698C261.642 274.698 260.658 274.554 259.73 274.266C258.802 273.962 258.074 273.586 257.546 273.138L258.314 271.794C258.826 272.178 259.482 272.514 260.282 272.802C261.082 273.074 261.922 273.21 262.802 273.21C264.002 273.21 264.866 273.026 265.394 272.658C265.922 272.274 266.186 271.77 266.186 271.146C266.186 270.682 266.034 270.322 265.73 270.066C265.442 269.794 265.058 269.594 264.578 269.466C264.098 269.322 263.562 269.202 262.97 269.106C262.378 269.01 261.786 268.898 261.194 268.77C260.618 268.642 260.09 268.458 259.61 268.218C259.13 267.962 258.738 267.618 258.434 267.186C258.146 266.754 258.002 266.178 258.002 265.458C258.002 264.77 258.194 264.154 258.578 263.61C258.962 263.066 259.522 262.642 260.258 262.338C261.01 262.018 261.922 261.858 262.994 261.858C263.81 261.858 264.626 261.97 265.442 262.194C266.258 262.402 266.93 262.682 267.458 263.034L266.714 264.402C266.154 264.018 265.554 263.746 264.914 263.586C264.274 263.41 263.634 263.322 262.994 263.322C261.858 263.322 261.018 263.522 260.474 263.922C259.946 264.306 259.682 264.802 259.682 265.41C259.682 265.89 259.826 266.266 260.114 266.538C260.418 266.81 260.81 267.026 261.29 267.186C261.786 267.33 262.322 267.45 262.898 267.546C263.49 267.642 264.074 267.762 264.65 267.906C265.242 268.034 265.778 268.218 266.258 268.458C266.754 268.682 267.146 269.01 267.434 269.442C267.738 269.858 267.89 270.41 267.89 271.098C267.89 271.834 267.682 272.474 267.266 273.018C266.866 273.546 266.274 273.962 265.49 274.266C264.722 274.554 263.786 274.698 262.682 274.698ZM276.249 274.698C275.001 274.698 273.881 274.426 272.889 273.882C271.913 273.322 271.145 272.562 270.585 271.602C270.025 270.626 269.745 269.514 269.745 268.266C269.745 267.002 270.025 265.89 270.585 264.93C271.145 263.97 271.913 263.218 272.889 262.674C273.881 262.13 275.001 261.858 276.249 261.858C277.321 261.858 278.289 262.066 279.153 262.482C280.017 262.898 280.697 263.522 281.193 264.354L279.921 265.218C279.489 264.578 278.953 264.106 278.313 263.802C277.673 263.498 276.977 263.346 276.225 263.346C275.329 263.346 274.521 263.554 273.801 263.97C273.081 264.37 272.513 264.938 272.097 265.674C271.681 266.41 271.473 267.274 271.473 268.266C271.473 269.258 271.681 270.122 272.097 270.858C272.513 271.594 273.081 272.17 273.801 272.586C274.521 272.986 275.329 273.186 276.225 273.186C276.977 273.186 277.673 273.034 278.313 272.73C278.953 272.426 279.489 271.962 279.921 271.338L281.193 272.202C280.697 273.018 280.017 273.642 279.153 274.074C278.289 274.49 277.321 274.698 276.249 274.698ZM289.465 274.698C288.249 274.698 287.153 274.426 286.177 273.882C285.217 273.322 284.457 272.562 283.897 271.602C283.337 270.626 283.057 269.514 283.057 268.266C283.057 267.002 283.337 265.89 283.897 264.93C284.457 263.97 285.217 263.218 286.177 262.674C287.137 262.13 288.233 261.858 289.465 261.858C290.713 261.858 291.817 262.13 292.777 262.674C293.753 263.218 294.513 263.97 295.057 264.93C295.617 265.89 295.897 267.002 295.897 268.266C295.897 269.514 295.617 270.626 295.057 271.602C294.513 272.562 293.753 273.322 292.777 273.882C291.801 274.426 290.697 274.698 289.465 274.698ZM289.465 273.186C290.377 273.186 291.185 272.986 291.889 272.586C292.593 272.17 293.145 271.594 293.545 270.858C293.961 270.106 294.169 269.242 294.169 268.266C294.169 267.274 293.961 266.41 293.545 265.674C293.145 264.938 292.593 264.37 291.889 263.97C291.185 263.554 290.385 263.346 289.489 263.346C288.593 263.346 287.793 263.554 287.089 263.97C286.385 264.37 285.825 264.938 285.409 265.674C284.993 266.41 284.785 267.274 284.785 268.266C284.785 269.242 284.993 270.106 285.409 270.858C285.825 271.594 286.385 272.17 287.089 272.586C287.793 272.986 288.585 273.186 289.465 273.186ZM302.264 274.578L296.672 261.978H298.448L303.584 273.666H302.744L307.952 261.978H309.632L304.016 274.578H302.264ZM317.033 274.698C315.721 274.698 314.569 274.426 313.577 273.882C312.585 273.322 311.809 272.562 311.249 271.602C310.689 270.626 310.409 269.514 310.409 268.266C310.409 267.018 310.673 265.914 311.201 264.954C311.745 263.994 312.481 263.242 313.409 262.698C314.353 262.138 315.409 261.858 316.577 261.858C317.761 261.858 318.809 262.13 319.721 262.674C320.649 263.202 321.377 263.954 321.905 264.93C322.433 265.89 322.697 267.002 322.697 268.266C322.697 268.346 322.689 268.434 322.673 268.53C322.673 268.61 322.673 268.698 322.673 268.794H311.705V267.522H321.761L321.089 268.026C321.089 267.114 320.889 266.306 320.489 265.602C320.105 264.882 319.577 264.322 318.905 263.922C318.233 263.522 317.457 263.322 316.577 263.322C315.713 263.322 314.937 263.522 314.249 263.922C313.561 264.322 313.025 264.882 312.641 265.602C312.257 266.322 312.065 267.146 312.065 268.074V268.338C312.065 269.298 312.273 270.146 312.689 270.882C313.121 271.602 313.713 272.17 314.465 272.586C315.233 272.986 316.105 273.186 317.081 273.186C317.849 273.186 318.561 273.05 319.217 272.778C319.889 272.506 320.465 272.09 320.945 271.53L321.905 272.634C321.345 273.306 320.641 273.818 319.793 274.17C318.961 274.522 318.041 274.698 317.033 274.698ZM326.165 274.578V261.978H327.797V265.41L327.629 264.81C327.981 263.85 328.573 263.122 329.405 262.626C330.237 262.114 331.269 261.858 332.501 261.858V263.514C332.437 263.514 332.373 263.514 332.309 263.514C332.245 263.498 332.181 263.49 332.117 263.49C330.789 263.49 329.749 263.898 328.997 264.714C328.245 265.514 327.869 266.658 327.869 268.146V274.578H326.165ZM348.511 261.858C349.535 261.858 350.431 262.058 351.199 262.458C351.983 262.842 352.591 263.434 353.023 264.234C353.471 265.034 353.695 266.042 353.695 267.258V274.578H351.991V267.426C351.991 266.098 351.655 265.098 350.983 264.426C350.327 263.738 349.399 263.394 348.199 263.394C347.303 263.394 346.519 263.578 345.847 263.946C345.191 264.298 344.679 264.818 344.311 265.506C343.959 266.178 343.783 266.994 343.783 267.954V274.578H342.079V261.978H343.711V265.434L343.447 264.786C343.847 263.874 344.487 263.162 345.367 262.65C346.247 262.122 347.295 261.858 348.511 261.858ZM363.65 274.698C362.338 274.698 361.186 274.426 360.194 273.882C359.202 273.322 358.426 272.562 357.866 271.602C357.306 270.626 357.026 269.514 357.026 268.266C357.026 267.018 357.29 265.914 357.818 264.954C358.362 263.994 359.098 263.242 360.026 262.698C360.97 262.138 362.026 261.858 363.194 261.858C364.378 261.858 365.426 262.13 366.338 262.674C367.266 263.202 367.994 263.954 368.522 264.93C369.05 265.89 369.314 267.002 369.314 268.266C369.314 268.346 369.306 268.434 369.29 268.53C369.29 268.61 369.29 268.698 369.29 268.794H358.322V267.522H368.378L367.706 268.026C367.706 267.114 367.506 266.306 367.106 265.602C366.722 264.882 366.194 264.322 365.522 263.922C364.85 263.522 364.074 263.322 363.194 263.322C362.33 263.322 361.554 263.522 360.866 263.922C360.178 264.322 359.642 264.882 359.258 265.602C358.874 266.322 358.682 267.146 358.682 268.074V268.338C358.682 269.298 358.89 270.146 359.306 270.882C359.738 271.602 360.33 272.17 361.082 272.586C361.85 272.986 362.722 273.186 363.698 273.186C364.466 273.186 365.178 273.05 365.834 272.778C366.506 272.506 367.082 272.09 367.562 271.53L368.522 272.634C367.962 273.306 367.258 273.818 366.41 274.17C365.578 274.522 364.658 274.698 363.65 274.698ZM375.116 274.578L370.364 261.978H371.996L376.316 273.666H375.572L380.012 261.978H381.476L385.868 273.666H385.124L389.516 261.978H391.076L386.3 274.578H384.692L380.468 263.586H380.972L376.724 274.578H375.116ZM6.552 303.578L0.888 286.778H2.712L8.016 302.594H7.104L12.576 286.778H14.208L19.608 302.594H18.744L24.096 286.778H25.8L20.136 303.578H18.264L13.104 288.578H13.584L8.4 303.578H6.552ZM32.8714 303.698C31.6554 303.698 30.5594 303.426 29.5834 302.882C28.6234 302.322 27.8634 301.562 27.3034 300.602C26.7434 299.626 26.4634 298.514 26.4634 297.266C26.4634 296.002 26.7434 294.89 27.3034 293.93C27.8634 292.97 28.6234 292.218 29.5834 291.674C30.5434 291.13 31.6394 290.858 32.8714 290.858C34.1194 290.858 35.2234 291.13 36.1834 291.674C37.1594 292.218 37.9194 292.97 38.4634 293.93C39.0234 294.89 39.3034 296.002 39.3034 297.266C39.3034 298.514 39.0234 299.626 38.4634 300.602C37.9194 301.562 37.1594 302.322 36.1834 302.882C35.2074 303.426 34.1034 303.698 32.8714 303.698ZM32.8714 302.186C33.7834 302.186 34.5914 301.986 35.2954 301.586C35.9994 301.17 36.5514 300.594 36.9514 299.858C37.3674 299.106 37.5754 298.242 37.5754 297.266C37.5754 296.274 37.3674 295.41 36.9514 294.674C36.5514 293.938 35.9994 293.37 35.2954 292.97C34.5914 292.554 33.7914 292.346 32.8954 292.346C31.9994 292.346 31.1994 292.554 30.4954 292.97C29.7914 293.37 29.2314 293.938 28.8154 294.674C28.3994 295.41 28.1914 296.274 28.1914 297.266C28.1914 298.242 28.3994 299.106 28.8154 299.858C29.2314 300.594 29.7914 301.17 30.4954 301.586C31.1994 301.986 31.9914 302.186 32.8714 302.186ZM42.7823 303.578V290.978H44.4143V294.41L44.2463 293.81C44.5983 292.85 45.1903 292.122 46.0223 291.626C46.8543 291.114 47.8863 290.858 49.1183 290.858V292.514C49.0543 292.514 48.9903 292.514 48.9263 292.514C48.8623 292.498 48.7983 292.49 48.7343 292.49C47.4062 292.49 46.3663 292.898 45.6143 293.714C44.8623 294.514 44.4863 295.658 44.4863 297.146V303.578H42.7823ZM53.5716 300.314L53.6196 298.13L61.4676 290.978H63.5556L58.0116 296.282L57.0516 297.098L53.5716 300.314ZM52.2276 303.578V285.77H53.9316V303.578H52.2276ZM61.9956 303.578L56.7396 297.026L57.8436 295.706L64.0836 303.578H61.9956ZM71.2854 303.698C70.0694 303.698 68.9734 303.426 67.9974 302.882C67.0374 302.322 66.2774 301.562 65.7174 300.602C65.1574 299.626 64.8774 298.514 64.8774 297.266C64.8774 296.002 65.1574 294.89 65.7174 293.93C66.2774 292.97 67.0374 292.218 67.9974 291.674C68.9574 291.13 70.0534 290.858 71.2854 290.858C72.5334 290.858 73.6374 291.13 74.5974 291.674C75.5734 292.218 76.3334 292.97 76.8774 293.93C77.4374 294.89 77.7174 296.002 77.7174 297.266C77.7174 298.514 77.4374 299.626 76.8774 300.602C76.3334 301.562 75.5734 302.322 74.5974 302.882C73.6214 303.426 72.5174 303.698 71.2854 303.698ZM71.2854 302.186C72.1974 302.186 73.0054 301.986 73.7094 301.586C74.4134 301.17 74.9654 300.594 75.3654 299.858C75.7814 299.106 75.9894 298.242 75.9894 297.266C75.9894 296.274 75.7814 295.41 75.3654 294.674C74.9654 293.938 74.4134 293.37 73.7094 292.97C73.0054 292.554 72.2054 292.346 71.3094 292.346C70.4134 292.346 69.6134 292.554 68.9094 292.97C68.2054 293.37 67.6454 293.938 67.2294 294.674C66.8134 295.41 66.6054 296.274 66.6054 297.266C66.6054 298.242 66.8134 299.106 67.2294 299.858C67.6454 300.594 68.2054 301.17 68.9094 301.586C69.6134 301.986 70.4054 302.186 71.2854 302.186ZM86.4043 303.698C85.3323 303.698 84.3963 303.498 83.5963 303.098C82.7963 302.698 82.1723 302.098 81.7243 301.298C81.2923 300.498 81.0763 299.498 81.0763 298.298V290.978H82.7803V298.106C82.7803 299.45 83.1083 300.466 83.7643 301.154C84.4363 301.826 85.3723 302.162 86.5723 302.162C87.4523 302.162 88.2123 301.986 88.8523 301.634C89.5083 301.266 90.0043 300.738 90.3403 300.05C90.6923 299.362 90.8683 298.538 90.8683 297.578V290.978H92.5723V303.578H90.9403V300.122L91.2043 300.746C90.8043 301.674 90.1803 302.402 89.3323 302.93C88.5003 303.442 87.5243 303.698 86.4043 303.698ZM101.305 303.698C100.121 303.698 99.2093 303.378 98.5693 302.738C97.9293 302.098 97.6093 301.194 97.6093 300.026V288.194H99.3133V299.93C99.3133 300.666 99.4973 301.234 99.8653 301.634C100.249 302.034 100.793 302.234 101.497 302.234C102.249 302.234 102.873 302.018 103.369 301.586L103.969 302.81C103.633 303.114 103.225 303.338 102.745 303.482C102.281 303.626 101.801 303.698 101.305 303.698ZM95.3533 292.394V290.978H103.153V292.394H95.3533ZM113.713 303.578V286.778H120.001C121.425 286.778 122.649 287.01 123.673 287.474C124.697 287.922 125.481 288.578 126.025 289.442C126.585 290.29 126.865 291.322 126.865 292.538C126.865 293.722 126.585 294.746 126.025 295.61C125.481 296.458 124.697 297.114 123.673 297.578C122.649 298.026 121.425 298.25 120.001 298.25H114.697L115.489 297.434V303.578H113.713ZM125.185 303.578L120.865 297.482H122.785L127.129 303.578H125.185ZM115.489 297.578L114.697 296.738H119.953C121.633 296.738 122.905 296.37 123.769 295.634C124.649 294.898 125.089 293.866 125.089 292.538C125.089 291.194 124.649 290.154 123.769 289.418C122.905 288.682 121.633 288.314 119.953 288.314H114.697L115.489 287.474V297.578ZM135.832 303.698C134.616 303.698 133.52 303.426 132.544 302.882C131.584 302.322 130.824 301.562 130.264 300.602C129.704 299.626 129.424 298.514 129.424 297.266C129.424 296.002 129.704 294.89 130.264 293.93C130.824 292.97 131.584 292.218 132.544 291.674C133.504 291.13 134.6 290.858 135.832 290.858C137.08 290.858 138.184 291.13 139.144 291.674C140.12 292.218 140.88 292.97 141.424 293.93C141.984 294.89 142.264 296.002 142.264 297.266C142.264 298.514 141.984 299.626 141.424 300.602C140.88 301.562 140.12 302.322 139.144 302.882C138.168 303.426 137.064 303.698 135.832 303.698ZM135.832 302.186C136.744 302.186 137.552 301.986 138.256 301.586C138.96 301.17 139.512 300.594 139.912 299.858C140.328 299.106 140.536 298.242 140.536 297.266C140.536 296.274 140.328 295.41 139.912 294.674C139.512 293.938 138.96 293.37 138.256 292.97C137.552 292.554 136.752 292.346 135.856 292.346C134.96 292.346 134.16 292.554 133.456 292.97C132.752 293.37 132.192 293.938 131.776 294.674C131.36 295.41 131.152 296.274 131.152 297.266C131.152 298.242 131.36 299.106 131.776 299.858C132.192 300.594 132.752 301.17 133.456 301.586C134.16 301.986 134.952 302.186 135.832 302.186ZM150.951 303.698C149.879 303.698 148.943 303.498 148.143 303.098C147.343 302.698 146.719 302.098 146.271 301.298C145.839 300.498 145.623 299.498 145.623 298.298V290.978H147.327V298.106C147.327 299.45 147.655 300.466 148.311 301.154C148.983 301.826 149.919 302.162 151.119 302.162C151.999 302.162 152.759 301.986 153.399 301.634C154.055 301.266 154.551 300.738 154.887 300.05C155.239 299.362 155.415 298.538 155.415 297.578V290.978H157.119V303.578H155.487V300.122L155.751 300.746C155.351 301.674 154.727 302.402 153.879 302.93C153.047 303.442 152.071 303.698 150.951 303.698ZM165.852 303.698C164.668 303.698 163.756 303.378 163.116 302.738C162.476 302.098 162.156 301.194 162.156 300.026V288.194H163.86V299.93C163.86 300.666 164.044 301.234 164.412 301.634C164.796 302.034 165.34 302.234 166.044 302.234C166.796 302.234 167.42 302.018 167.916 301.586L168.516 302.81C168.18 303.114 167.772 303.338 167.292 303.482C166.828 303.626 166.348 303.698 165.852 303.698ZM159.9 292.394V290.978H167.7V292.394H159.9ZM171.618 303.578V290.978H173.322V303.578H171.618ZM172.482 288.194C172.13 288.194 171.834 288.074 171.594 287.834C171.354 287.594 171.234 287.306 171.234 286.97C171.234 286.634 171.354 286.354 171.594 286.13C171.834 285.89 172.13 285.77 172.482 285.77C172.834 285.77 173.13 285.882 173.37 286.106C173.61 286.33 173.73 286.61 173.73 286.946C173.73 287.298 173.61 287.594 173.37 287.834C173.146 288.074 172.85 288.194 172.482 288.194ZM184.496 290.858C185.52 290.858 186.416 291.058 187.184 291.458C187.968 291.842 188.576 292.434 189.008 293.234C189.456 294.034 189.68 295.042 189.68 296.258V303.578H187.976V296.426C187.976 295.098 187.64 294.098 186.968 293.426C186.312 292.738 185.384 292.394 184.184 292.394C183.288 292.394 182.504 292.578 181.832 292.946C181.176 293.298 180.664 293.818 180.296 294.506C179.944 295.178 179.768 295.994 179.768 296.954V303.578H178.064V290.978H179.696V294.434L179.432 293.786C179.832 292.874 180.472 292.162 181.352 291.65C182.232 291.122 183.28 290.858 184.496 290.858ZM199.634 303.698C198.322 303.698 197.17 303.426 196.178 302.882C195.186 302.322 194.41 301.562 193.85 300.602C193.29 299.626 193.01 298.514 193.01 297.266C193.01 296.018 193.274 294.914 193.802 293.954C194.346 292.994 195.082 292.242 196.01 291.698C196.954 291.138 198.01 290.858 199.178 290.858C200.362 290.858 201.41 291.13 202.322 291.674C203.25 292.202 203.978 292.954 204.506 293.93C205.034 294.89 205.298 296.002 205.298 297.266C205.298 297.346 205.29 297.434 205.274 297.53C205.274 297.61 205.274 297.698 205.274 297.794H194.306V296.522H204.362L203.69 297.026C203.69 296.114 203.49 295.306 203.09 294.602C202.706 293.882 202.178 293.322 201.506 292.922C200.834 292.522 200.058 292.322 199.178 292.322C198.314 292.322 197.538 292.522 196.85 292.922C196.162 293.322 195.626 293.882 195.242 294.602C194.858 295.322 194.666 296.146 194.666 297.074V297.338C194.666 298.298 194.874 299.146 195.29 299.882C195.722 300.602 196.314 301.17 197.066 301.586C197.834 301.986 198.706 302.186 199.682 302.186C200.45 302.186 201.162 302.05 201.818 301.778C202.49 301.506 203.066 301.09 203.546 300.53L204.506 301.634C203.946 302.306 203.242 302.818 202.394 303.17C201.562 303.522 200.642 303.698 199.634 303.698ZM212.151 303.698C211.111 303.698 210.127 303.554 209.199 303.266C208.271 302.962 207.543 302.586 207.015 302.138L207.783 300.794C208.295 301.178 208.951 301.514 209.751 301.802C210.551 302.074 211.391 302.21 212.271 302.21C213.471 302.21 214.335 302.026 214.863 301.658C215.391 301.274 215.655 300.77 215.655 300.146C215.655 299.682 215.503 299.322 215.199 299.066C214.911 298.794 214.527 298.594 214.047 298.466C213.567 298.322 213.031 298.202 212.439 298.106C211.847 298.01 211.255 297.898 210.663 297.77C210.087 297.642 209.559 297.458 209.079 297.218C208.599 296.962 208.207 296.618 207.903 296.186C207.615 295.754 207.471 295.178 207.471 294.458C207.471 293.77 207.663 293.154 208.047 292.61C208.431 292.066 208.991 291.642 209.727 291.338C210.479 291.018 211.391 290.858 212.463 290.858C213.279 290.858 214.095 290.97 214.911 291.194C215.727 291.402 216.399 291.682 216.927 292.034L216.183 293.402C215.623 293.018 215.023 292.746 214.383 292.586C213.743 292.41 213.103 292.322 212.463 292.322C211.327 292.322 210.487 292.522 209.943 292.922C209.415 293.306 209.151 293.802 209.151 294.41C209.151 294.89 209.295 295.266 209.583 295.538C209.887 295.81 210.279 296.026 210.759 296.186C211.255 296.33 211.791 296.45 212.367 296.546C212.959 296.642 213.543 296.762 214.119 296.906C214.711 297.034 215.247 297.218 215.727 297.458C216.223 297.682 216.615 298.01 216.903 298.442C217.207 298.858 217.359 299.41 217.359 300.098C217.359 300.834 217.151 301.474 216.735 302.018C216.335 302.546 215.743 302.962 214.959 303.266C214.191 303.554 213.255 303.698 212.151 303.698ZM230.751 303.698C229.567 303.698 228.655 303.378 228.015 302.738C227.375 302.098 227.055 301.194 227.055 300.026V288.194H228.759V299.93C228.759 300.666 228.943 301.234 229.311 301.634C229.695 302.034 230.239 302.234 230.943 302.234C231.695 302.234 232.319 302.018 232.815 301.586L233.415 302.81C233.079 303.114 232.671 303.338 232.191 303.482C231.727 303.626 231.247 303.698 230.751 303.698ZM224.799 292.394V290.978H232.599V292.394H224.799ZM241.207 303.698C239.991 303.698 238.895 303.426 237.919 302.882C236.959 302.322 236.199 301.562 235.639 300.602C235.079 299.626 234.799 298.514 234.799 297.266C234.799 296.002 235.079 294.89 235.639 293.93C236.199 292.97 236.959 292.218 237.919 291.674C238.879 291.13 239.975 290.858 241.207 290.858C242.455 290.858 243.559 291.13 244.519 291.674C245.495 292.218 246.255 292.97 246.799 293.93C247.359 294.89 247.639 296.002 247.639 297.266C247.639 298.514 247.359 299.626 246.799 300.602C246.255 301.562 245.495 302.322 244.519 302.882C243.543 303.426 242.439 303.698 241.207 303.698ZM241.207 302.186C242.119 302.186 242.927 301.986 243.631 301.586C244.335 301.17 244.887 300.594 245.287 299.858C245.703 299.106 245.911 298.242 245.911 297.266C245.911 296.274 245.703 295.41 245.287 294.674C244.887 293.938 244.335 293.37 243.631 292.97C242.927 292.554 242.127 292.346 241.231 292.346C240.335 292.346 239.535 292.554 238.831 292.97C238.127 293.37 237.567 293.938 237.151 294.674C236.735 295.41 236.527 296.274 236.527 297.266C236.527 298.242 236.735 299.106 237.151 299.858C237.567 300.594 238.127 301.17 238.831 301.586C239.535 301.986 240.327 302.186 241.207 302.186ZM262.631 303.698C261.383 303.698 260.263 303.426 259.271 302.882C258.295 302.322 257.527 301.562 256.967 300.602C256.407 299.626 256.127 298.514 256.127 297.266C256.127 296.002 256.407 294.89 256.967 293.93C257.527 292.97 258.295 292.218 259.271 291.674C260.263 291.13 261.383 290.858 262.631 290.858C263.703 290.858 264.671 291.066 265.535 291.482C266.399 291.898 267.079 292.522 267.575 293.354L266.303 294.218C265.871 293.578 265.335 293.106 264.695 292.802C264.055 292.498 263.359 292.346 262.607 292.346C261.711 292.346 260.903 292.554 260.183 292.97C259.463 293.37 258.895 293.938 258.479 294.674C258.063 295.41 257.855 296.274 257.855 297.266C257.855 298.258 258.063 299.122 258.479 299.858C258.895 300.594 259.463 301.17 260.183 301.586C260.903 301.986 261.711 302.186 262.607 302.186C263.359 302.186 264.055 302.034 264.695 301.73C265.335 301.426 265.871 300.962 266.303 300.338L267.575 301.202C267.079 302.018 266.399 302.642 265.535 303.074C264.671 303.49 263.703 303.698 262.631 303.698ZM270.923 303.578V290.978H272.555V294.41L272.387 293.81C272.739 292.85 273.331 292.122 274.163 291.626C274.995 291.114 276.027 290.858 277.259 290.858V292.514C277.195 292.514 277.131 292.514 277.067 292.514C277.003 292.498 276.939 292.49 276.875 292.49C275.547 292.49 274.507 292.898 273.755 293.714C273.003 294.514 272.627 295.658 272.627 297.146V303.578H270.923ZM285.764 303.698C284.692 303.698 283.756 303.498 282.956 303.098C282.156 302.698 281.532 302.098 281.084 301.298C280.652 300.498 280.436 299.498 280.436 298.298V290.978H282.14V298.106C282.14 299.45 282.468 300.466 283.124 301.154C283.796 301.826 284.732 302.162 285.932 302.162C286.812 302.162 287.572 301.986 288.212 301.634C288.868 301.266 289.364 300.738 289.7 300.05C290.052 299.362 290.228 298.538 290.228 297.578V290.978H291.932V303.578H290.3V300.122L290.564 300.746C290.164 301.674 289.54 302.402 288.692 302.93C287.86 303.442 286.884 303.698 285.764 303.698ZM300.065 303.698C299.025 303.698 298.041 303.554 297.113 303.266C296.185 302.962 295.457 302.586 294.929 302.138L295.697 300.794C296.209 301.178 296.865 301.514 297.665 301.802C298.465 302.074 299.305 302.21 300.185 302.21C301.385 302.21 302.249 302.026 302.777 301.658C303.305 301.274 303.569 300.77 303.569 300.146C303.569 299.682 303.417 299.322 303.113 299.066C302.825 298.794 302.441 298.594 301.961 298.466C301.481 298.322 300.945 298.202 300.353 298.106C299.761 298.01 299.169 297.898 298.577 297.77C298.001 297.642 297.473 297.458 296.993 297.218C296.513 296.962 296.121 296.618 295.817 296.186C295.529 295.754 295.385 295.178 295.385 294.458C295.385 293.77 295.577 293.154 295.961 292.61C296.345 292.066 296.905 291.642 297.641 291.338C298.393 291.018 299.305 290.858 300.377 290.858C301.193 290.858 302.009 290.97 302.825 291.194C303.641 291.402 304.313 291.682 304.841 292.034L304.097 293.402C303.537 293.018 302.937 292.746 302.297 292.586C301.657 292.41 301.017 292.322 300.377 292.322C299.241 292.322 298.401 292.522 297.857 292.922C297.329 293.306 297.065 293.802 297.065 294.41C297.065 294.89 297.209 295.266 297.497 295.538C297.801 295.81 298.193 296.026 298.673 296.186C299.169 296.33 299.705 296.45 300.281 296.546C300.873 296.642 301.457 296.762 302.033 296.906C302.625 297.034 303.161 297.218 303.641 297.458C304.137 297.682 304.529 298.01 304.817 298.442C305.121 298.858 305.273 299.41 305.273 300.098C305.273 300.834 305.065 301.474 304.649 302.018C304.249 302.546 303.657 302.962 302.873 303.266C302.105 303.554 301.169 303.698 300.065 303.698ZM314.831 290.858C315.855 290.858 316.751 291.058 317.519 291.458C318.303 291.842 318.911 292.434 319.343 293.234C319.791 294.034 320.015 295.042 320.015 296.258V303.578H318.311V296.426C318.311 295.098 317.975 294.098 317.303 293.426C316.647 292.738 315.719 292.394 314.519 292.394C313.623 292.394 312.839 292.578 312.167 292.946C311.511 293.298 310.999 293.818 310.631 294.506C310.279 295.178 310.103 295.994 310.103 296.954V303.578H308.399V285.77H310.103V294.434L309.767 293.786C310.167 292.874 310.807 292.162 311.687 291.65C312.567 291.122 313.615 290.858 314.831 290.858ZM330.995 308.354C330.403 308.354 329.835 308.258 329.291 308.066C328.763 307.874 328.307 307.586 327.923 307.202L328.715 305.93C329.035 306.234 329.379 306.466 329.747 306.626C330.131 306.802 330.555 306.89 331.019 306.89C331.579 306.89 332.059 306.73 332.459 306.41C332.875 306.106 333.267 305.562 333.635 304.778L334.451 302.93L334.643 302.666L339.827 290.978H341.507L335.195 305.09C334.843 305.906 334.451 306.554 334.019 307.034C333.603 307.514 333.147 307.85 332.651 308.042C332.155 308.25 331.603 308.354 330.995 308.354ZM334.355 303.938L328.547 290.978H330.323L335.459 302.546L334.355 303.938ZM348.692 303.698C347.476 303.698 346.38 303.426 345.404 302.882C344.444 302.322 343.684 301.562 343.124 300.602C342.564 299.626 342.284 298.514 342.284 297.266C342.284 296.002 342.564 294.89 343.124 293.93C343.684 292.97 344.444 292.218 345.404 291.674C346.364 291.13 347.46 290.858 348.692 290.858C349.94 290.858 351.044 291.13 352.004 291.674C352.98 292.218 353.74 292.97 354.284 293.93C354.844 294.89 355.124 296.002 355.124 297.266C355.124 298.514 354.844 299.626 354.284 300.602C353.74 301.562 352.98 302.322 352.004 302.882C351.028 303.426 349.924 303.698 348.692 303.698ZM348.692 302.186C349.604 302.186 350.412 301.986 351.116 301.586C351.82 301.17 352.372 300.594 352.772 299.858C353.188 299.106 353.396 298.242 353.396 297.266C353.396 296.274 353.188 295.41 352.772 294.674C352.372 293.938 351.82 293.37 351.116 292.97C350.412 292.554 349.612 292.346 348.716 292.346C347.82 292.346 347.02 292.554 346.316 292.97C345.612 293.37 345.052 293.938 344.636 294.674C344.22 295.41 344.012 296.274 344.012 297.266C344.012 298.242 344.22 299.106 344.636 299.858C345.052 300.594 345.612 301.17 346.316 301.586C347.02 301.986 347.812 302.186 348.692 302.186ZM363.811 303.698C362.739 303.698 361.803 303.498 361.003 303.098C360.203 302.698 359.579 302.098 359.131 301.298C358.699 300.498 358.483 299.498 358.483 298.298V290.978H360.187V298.106C360.187 299.45 360.515 300.466 361.171 301.154C361.843 301.826 362.779 302.162 363.979 302.162C364.859 302.162 365.619 301.986 366.259 301.634C366.915 301.266 367.411 300.738 367.747 300.05C368.099 299.362 368.275 298.538 368.275 297.578V290.978H369.979V303.578H368.347V300.122L368.611 300.746C368.211 301.674 367.587 302.402 366.739 302.93C365.907 303.442 364.931 303.698 363.811 303.698ZM374.728 303.578V290.978H376.36V294.41L376.192 293.81C376.544 292.85 377.136 292.122 377.968 291.626C378.8 291.114 379.832 290.858 381.064 290.858V292.514C381 292.514 380.936 292.514 380.872 292.514C380.808 292.498 380.744 292.49 380.68 292.49C379.352 292.49 378.312 292.898 377.56 293.714C376.808 294.514 376.432 295.658 376.432 297.146V303.578H374.728ZM7.752 337.354C6.6 337.354 5.496 337.186 4.44 336.85C3.384 336.514 2.528 336.034 1.872 335.41L2.736 334.114C3.328 334.642 4.056 335.058 4.92 335.362C5.8 335.682 6.728 335.842 7.704 335.842C9.304 335.842 10.48 335.466 11.232 334.714C11.984 333.978 12.36 332.826 12.36 331.258V328.114L12.6 325.954L12.432 323.794V319.978H14.064V331.042C14.064 333.218 13.528 334.81 12.456 335.818C11.4 336.842 9.832 337.354 7.752 337.354ZM7.44 332.098C6.24 332.098 5.16 331.842 4.2 331.33C3.24 330.802 2.48 330.074 1.92 329.146C1.376 328.218 1.104 327.154 1.104 325.954C1.104 324.754 1.376 323.698 1.92 322.786C2.48 321.858 3.24 321.138 4.2 320.626C5.16 320.114 6.24 319.858 7.44 319.858C8.56 319.858 9.568 320.09 10.464 320.554C11.36 321.018 12.072 321.706 12.6 322.618C13.128 323.53 13.392 324.642 13.392 325.954C13.392 327.266 13.128 328.378 12.6 329.29C12.072 330.202 11.36 330.898 10.464 331.378C9.568 331.858 8.56 332.098 7.44 332.098ZM7.608 330.586C8.536 330.586 9.36 330.394 10.08 330.01C10.8 329.61 11.368 329.066 11.784 328.378C12.2 327.674 12.408 326.866 12.408 325.954C12.408 325.042 12.2 324.242 11.784 323.554C11.368 322.866 10.8 322.33 10.08 321.946C9.36 321.546 8.536 321.346 7.608 321.346C6.696 321.346 5.872 321.546 5.136 321.946C4.416 322.33 3.848 322.866 3.432 323.554C3.032 324.242 2.832 325.042 2.832 325.954C2.832 326.866 3.032 327.674 3.432 328.378C3.848 329.066 4.416 329.61 5.136 330.01C5.872 330.394 6.696 330.586 7.608 330.586ZM23.9417 332.698C22.7257 332.698 21.6297 332.426 20.6537 331.882C19.6937 331.322 18.9337 330.562 18.3737 329.602C17.8137 328.626 17.5337 327.514 17.5337 326.266C17.5337 325.002 17.8137 323.89 18.3737 322.93C18.9337 321.97 19.6937 321.218 20.6537 320.674C21.6137 320.13 22.7097 319.858 23.9417 319.858C25.1897 319.858 26.2937 320.13 27.2537 320.674C28.2297 321.218 28.9897 321.97 29.5337 322.93C30.0937 323.89 30.3737 325.002 30.3737 326.266C30.3737 327.514 30.0937 328.626 29.5337 329.602C28.9897 330.562 28.2297 331.322 27.2537 331.882C26.2777 332.426 25.1737 332.698 23.9417 332.698ZM23.9417 331.186C24.8537 331.186 25.6617 330.986 26.3657 330.586C27.0697 330.17 27.6217 329.594 28.0217 328.858C28.4377 328.106 28.6457 327.242 28.6457 326.266C28.6457 325.274 28.4377 324.41 28.0217 323.674C27.6217 322.938 27.0697 322.37 26.3657 321.97C25.6617 321.554 24.8617 321.346 23.9657 321.346C23.0697 321.346 22.2697 321.554 21.5657 321.97C20.8617 322.37 20.3017 322.938 19.8857 323.674C19.4697 324.41 19.2617 325.274 19.2617 326.266C19.2617 327.242 19.4697 328.106 19.8857 328.858C20.3017 329.594 20.8617 330.17 21.5657 330.586C22.2697 330.986 23.0617 331.186 23.9417 331.186ZM41.6783 332.578V329.794L41.6063 329.338V324.682C41.6063 323.61 41.3023 322.786 40.6943 322.21C40.1023 321.634 39.2143 321.346 38.0303 321.346C37.2143 321.346 36.4383 321.482 35.7023 321.754C34.9663 322.026 34.3423 322.386 33.8303 322.834L33.0623 321.562C33.7023 321.018 34.4703 320.602 35.3663 320.314C36.2623 320.01 37.2063 319.858 38.1983 319.858C39.8303 319.858 41.0863 320.266 41.9663 321.082C42.8623 321.882 43.3103 323.106 43.3103 324.754V332.578H41.6783ZM37.3343 332.698C36.3903 332.698 35.5663 332.546 34.8623 332.242C34.1743 331.922 33.6463 331.49 33.2783 330.946C32.9103 330.386 32.7263 329.746 32.7263 329.026C32.7263 328.37 32.8783 327.778 33.1823 327.25C33.5023 326.706 34.0143 326.274 34.7183 325.954C35.4383 325.618 36.3983 325.45 37.5983 325.45H41.9423V326.722H37.6463C36.4303 326.722 35.5823 326.938 35.1023 327.37C34.6383 327.802 34.4062 328.338 34.4062 328.978C34.4062 329.698 34.6863 330.274 35.2463 330.706C35.8063 331.138 36.5903 331.354 37.5983 331.354C38.5583 331.354 39.3823 331.138 40.0703 330.706C40.7743 330.258 41.2863 329.618 41.6063 328.786L41.9903 329.962C41.6703 330.794 41.1103 331.458 40.3103 331.954C39.5263 332.45 38.5343 332.698 37.3343 332.698ZM47.9385 332.578V314.77H49.6425V332.578H47.9385ZM57.7678 332.698C56.7278 332.698 55.7438 332.554 54.8158 332.266C53.8878 331.962 53.1598 331.586 52.6318 331.138L53.3998 329.794C53.9118 330.178 54.5678 330.514 55.3678 330.802C56.1678 331.074 57.0078 331.21 57.8878 331.21C59.0878 331.21 59.9518 331.026 60.4798 330.658C61.0078 330.274 61.2718 329.77 61.2718 329.146C61.2718 328.682 61.1198 328.322 60.8158 328.066C60.5278 327.794 60.1438 327.594 59.6638 327.466C59.1838 327.322 58.6478 327.202 58.0558 327.106C57.4638 327.01 56.8718 326.898 56.2798 326.77C55.7038 326.642 55.1758 326.458 54.6958 326.218C54.2158 325.962 53.8238 325.618 53.5198 325.186C53.2318 324.754 53.0878 324.178 53.0878 323.458C53.0878 322.77 53.2798 322.154 53.6638 321.61C54.0478 321.066 54.6078 320.642 55.3438 320.338C56.0958 320.018 57.0078 319.858 58.0798 319.858C58.8958 319.858 59.7118 319.97 60.5278 320.194C61.3438 320.402 62.0158 320.682 62.5438 321.034L61.7998 322.402C61.2398 322.018 60.6398 321.746 59.9998 321.586C59.3598 321.41 58.7198 321.322 58.0798 321.322C56.9438 321.322 56.1038 321.522 55.5598 321.922C55.0318 322.306 54.7678 322.802 54.7678 323.41C54.7678 323.89 54.9118 324.266 55.1998 324.538C55.5038 324.81 55.8958 325.026 56.3758 325.186C56.8718 325.33 57.4078 325.45 57.9838 325.546C58.5758 325.642 59.1598 325.762 59.7358 325.906C60.3278 326.034 60.8638 326.218 61.3438 326.458C61.8398 326.682 62.2318 327.01 62.5198 327.442C62.8238 327.858 62.9758 328.41 62.9758 329.098C62.9758 329.834 62.7678 330.474 62.3518 331.018C61.9518 331.546 61.3598 331.962 60.5758 332.266C59.8078 332.554 58.8718 332.698 57.7678 332.698ZM66.2706 332.698C65.9186 332.698 65.6146 332.57 65.3586 332.314C65.1186 332.058 64.9986 331.746 64.9986 331.378C64.9986 330.994 65.1186 330.682 65.3586 330.442C65.6146 330.202 65.9186 330.082 66.2706 330.082C66.6226 330.082 66.9186 330.202 67.1586 330.442C67.4146 330.682 67.5426 330.994 67.5426 331.378C67.5426 331.746 67.4146 332.058 67.1586 332.314C66.9186 332.57 66.6226 332.698 66.2706 332.698Z" fill="#E8E8E8"/>
<rect x="432" width="591" height="566" rx="30" fill="white" fill-opacity="0.8"/>
</svg>
