<svg width="576" height="350" viewBox="0 0 576 350" fill="none" xmlns="http://www.w3.org/2000/svg">
<path d="M108.5 130H264.5V215H108.5V130ZM116.5 261H291.5V350H0.500002V-2.38419e-05H285V89H116.5V261ZM186.984 350L342.984 132L342.484 214.5L191.484 -2.38419e-05H323.984L411.984 130L355.484 130.5L441.484 -2.38419e-05H568.484L417.484 210V128L575.984 350H440.984L352.984 214L407.484 213.5L321.484 350H186.984Z" fill="#FA7D00"/>
<path d="M108.5 130V129H107.5V130H108.5ZM264.5 130H265.5V129H264.5V130ZM264.5 215V216H265.5V215H264.5ZM108.5 215H107.5V216H108.5V215ZM116.5 261H115.5V262H116.5V261ZM291.5 261H292.5V260H291.5V261ZM291.5 350V351H292.5V350H291.5ZM0.500002 350H-0.499998V351H0.500002V350ZM0.500002 -2.38419e-05V-1.00002H-0.499998V-2.38419e-05H0.500002ZM285 -2.38419e-05H286V-1.00002H285V-2.38419e-05ZM285 89V90H286V89H285ZM116.5 89V88H115.5V89H116.5ZM108.5 131H264.5V129H108.5V131ZM263.5 130V215H265.5V130H263.5ZM264.5 214H108.5V216H264.5V214ZM109.5 215V130H107.5V215H109.5ZM116.5 262H291.5V260H116.5V262ZM290.5 261V350H292.5V261H290.5ZM291.5 349H0.500002V351H291.5V349ZM1.5 350V-2.38419e-05H-0.499998V350H1.5ZM0.500002 0.999976H285V-1.00002H0.500002V0.999976ZM284 -2.38419e-05V89H286V-2.38419e-05H284ZM285 88H116.5V90H285V88ZM115.5 89V261H117.5V89H115.5ZM186.984 350L186.171 349.418L185.039 351H186.984V350ZM342.984 132L343.984 132.006L344.003 128.858L342.171 131.418L342.984 132ZM342.484 214.5L341.667 215.076L343.465 217.631L343.484 214.506L342.484 214.5ZM191.484 -2.38419e-05V-1.00002H189.557L190.667 0.575611L191.484 -2.38419e-05ZM323.984 -2.38419e-05L324.812 -0.56059L324.515 -1.00002H323.984V-2.38419e-05ZM411.984 130L411.993 131L413.858 130.983L412.813 129.439L411.984 130ZM355.484 130.5L354.649 129.95L353.617 131.517L355.493 131.5L355.484 130.5ZM441.484 -2.38419e-05V-1.00002H440.946L440.649 -0.550287L441.484 -2.38419e-05ZM568.484 -2.38419e-05L569.296 0.583772L570.435 -1.00002H568.484V-2.38419e-05ZM417.484 210H416.484V213.104L418.296 210.584L417.484 210ZM417.484 128L418.298 127.419L416.484 124.878V128H417.484ZM575.984 350V351H577.927L576.798 349.419L575.984 350ZM440.984 350L440.145 350.543L440.44 351H440.984V350ZM352.984 214L352.975 213L351.157 213.017L352.145 214.543L352.984 214ZM407.484 213.5L408.33 214.033L409.307 212.483L407.475 212.5L407.484 213.5ZM321.484 350V351H322.036L322.33 350.533L321.484 350ZM187.798 350.582L343.798 132.582L342.171 131.418L186.171 349.418L187.798 350.582ZM341.984 131.994L341.484 214.494L343.484 214.506L343.984 132.006L341.984 131.994ZM343.302 213.924L192.302 -0.575659L190.667 0.575611L341.667 215.076L343.302 213.924ZM191.484 0.999976H323.984V-1.00002H191.484V0.999976ZM323.156 0.560543L411.156 130.561L412.813 129.439L324.812 -0.56059L323.156 0.560543ZM411.976 129L355.476 129.5L355.493 131.5L411.993 131L411.976 129ZM356.319 131.05L442.319 0.550239L440.649 -0.550287L354.649 129.95L356.319 131.05ZM441.484 0.999976H568.484V-1.00002H441.484V0.999976ZM567.673 -0.583819L416.672 209.416L418.296 210.584L569.296 0.583772L567.673 -0.583819ZM418.484 210V128H416.484V210H418.484ZM416.671 128.581L575.171 350.581L576.798 349.419L418.298 127.419L416.671 128.581ZM575.984 349H440.984V351H575.984V349ZM441.824 349.457L353.824 213.457L352.145 214.543L440.145 350.543L441.824 349.457ZM352.994 215L407.494 214.5L407.475 212.5L352.975 213L352.994 215ZM406.638 212.967L320.638 349.467L322.33 350.533L408.33 214.033L406.638 212.967ZM321.484 349H186.984V351H321.484V349Z" fill="#4B4B4B"/>
</svg>
